<?xml version="1.0" encoding="UTF-8"?>
<svg id="Layer_1" data-name="Layer 1" xmlns="http://www.w3.org/2000/svg" viewBox="0 0 267.11 296.16">
  <defs>
    <style>
      .cls-1 {
        fill: #0a0613;
      }

      .cls-1, .cls-2, .cls-3, .cls-4, .cls-5, .cls-6, .cls-7, .cls-8, .cls-9, .cls-10 {
        stroke-width: 0px;
      }

      .cls-2 {
        fill: #7105e2;
      }

      .cls-3 {
        fill: #c4c4c4;
      }

      .cls-4 {
        fill: #9013fe;
      }

      .cls-5, .cls-8 {
        fill: #e8d2ff;
      }

      .cls-6 {
        fill: #300a6f;
      }

      .cls-11 {
        opacity: .35;
      }

      .cls-7 {
        fill: none;
      }

      .cls-8 {
        opacity: .1;
      }

      .cls-9 {
        fill: #fff;
      }

      .cls-10 {
        fill: #d8d8d8;
      }
    </style>
  </defs>
  <path class="cls-9" d="M157.8,296.16c-5.89,0-11.33-1.87-15.72-5.4-3.11-2.5-5.5-5.67-7.07-9.31-.41.01-.81.02-1.21.02-1.12,0-2.23-.04-3.34-.13-1.57,3.68-3.98,6.88-7.14,9.42-4.4,3.53-9.83,5.4-15.72,5.4-2.56,0-5.18-.36-7.79-1.06-7.36-1.98-14.29-6.65-19.52-13.15-3.83-4.76-6.5-10.21-7.8-15.78-2.45-.78-4.73-1.91-6.81-3.4-6.25-4.45-10.19-11.5-10.52-18.85-.11-2.5.18-4.96.88-7.37-9.29-8.04-15.76-19.1-18.31-31.42-1.86-8.99-1.61-18.34.74-27.84-1.88-2.82-3.63-5.73-5.25-8.69-12.63-2.85-16.69-5.46-19.1-7.86C4.86,151.5,1.59,133.41.48,119.85c-.23-2.76-2.06-27.28,3.4-37.12,1.34-2.41,4.05-7.29,25.86-16.07C48.36,26.02,88.65,0,133.55,0s85.19,26.02,103.81,66.66c21.82,8.78,24.53,13.66,25.86,16.07,5.46,9.84,3.63,34.36,3.4,37.12-1.11,13.55-4.38,31.65-13.63,40.88-2.41,2.41-6.48,5.01-19.1,7.86-4.98,9.17-11.15,17.55-18.42,25.03.23.49.44.99.64,1.5,1.93,4.97,2.18,10.35.74,16-.75,2.94-1.97,5.97-3.62,9-1.4,2.57-3.9,6.55-7.84,10.85-2.61,2.86-5.62,5.44-9,7.71l-1.21,10.46c-.23,2.01-.78,3.97-1.62,5.84.2,1.66.26,3.36.18,5.08-.35,7.62-3.42,15.39-8.65,21.89-5.23,6.5-12.16,11.17-19.52,13.15-2.61.7-5.23,1.06-7.79,1.06Z"/>
  <g>
    <g>
      <path class="cls-1" d="M90.32,239.43c-9.41,0-18.52-3.15-26.09-9.08-8.52-6.68-14.46-16.36-16.71-27.24-3.88-18.77,4.48-35.12,7.13-39.68,1.99-3.41,6.36-4.57,9.77-2.58,3.41,1.99,4.57,6.36,2.58,9.77-1.43,2.46-8.42,15.44-5.49,29.6,3.04,14.71,15.14,24.92,28.85,24.93,1.07,0,2.14-.06,3.22-.19,3.92-.46,7.47,2.35,7.93,6.27.46,3.92-2.35,7.47-6.27,7.93-1.64.19-3.28.29-4.92.29Z"/>
      <g>
        <g>
          <g>
            <g>
              <path class="cls-9" d="M119.92,196.53c-3.01-2.05-16.82,9.77-44.45,33.41-.69.59-1.52,1.31-2.38,2.14-.52.51-1.06,1.06-1.59,1.65-.5.56-.98,1.16-1.44,1.8-1.59,2.22-2.78,4.87-2.65,7.84.18,3.93,2.63,7.45,5.37,9.4,4.58,3.26,10.71,2.64,15.72,1.21.85-.24,1.67-.51,2.45-.79.72-.26,1.41-.53,2.04-.79,2.15-.89,3.71-1.73,4.26-2.02,22.33-11.94,30.44-48.55,22.67-53.85ZM96.17,248.36c-.98.52-2.63,1.35-4.65,2.16-.74.3-1.54.59-2.37.86-.81.27-1.65.51-2.51.73-4.28,1.06-9.03,1.28-12.53-1.21-1.94-1.38-4.25-4.21-4.41-7.64-.1-2.22.78-4.29,2-6.09.44-.64.92-1.25,1.42-1.82.52-.6,1.06-1.15,1.58-1.65.83-.8,1.63-1.49,2.25-2.02,12.64-10.82,22.62-19.36,29.75-25,3.66-2.89,6.47-4.95,8.59-6.28,2.16-1.36,3.17-1.69,3.57-1.78.94.92,1.86,3.57,1.6,8.38-.65,12.13-8.62,32.99-24.3,41.37Z"/>
              <path class="cls-1" d="M121.21,194.64c-2.01-1.37-4.65-.23-6.73.92-2.2,1.22-5.05,3.2-8.96,6.23-7.33,5.69-17.48,14.38-31.54,26.41-2.75,2.35-9.19,7.86-8.85,15.27.23,5.07,3.42,9.09,6.33,11.16,2.62,1.87,5.81,2.8,9.52,2.8,2.19,0,4.57-.33,7.12-.98,2.32-.59,5.97-1.78,10.23-4.06,9.72-5.2,15.95-14.19,19.45-20.82,4.14-7.83,6.85-16.92,7.25-24.33.03-.65.05-1.28.05-1.88,0-5.29-1.33-8.98-3.88-10.72ZM120.47,206.99c-.65,12.13-8.62,32.99-24.3,41.37-.98.52-2.63,1.35-4.65,2.16-.74.3-1.54.59-2.37.86-.81.27-1.65.51-2.51.73-4.28,1.06-9.03,1.28-12.53-1.21-1.94-1.38-4.25-4.21-4.41-7.64-.1-2.22.78-4.29,2-6.09.44-.64.92-1.25,1.42-1.82.52-.6,1.06-1.15,1.58-1.65.83-.8,1.63-1.49,2.25-2.02,12.64-10.82,22.62-19.36,29.75-25,3.66-2.89,6.47-4.95,8.59-6.28,2.16-1.36,3.17-1.69,3.57-1.78.94.92,1.86,3.57,1.6,8.38Z"/>
              <path class="cls-4" d="M86.64,252.1c-4.28,1.06-9.03,1.28-12.53-1.21-1.94-1.38-4.25-4.21-4.41-7.64-.1-2.22.78-4.29,2-6.09l14.94,14.94Z"/>
              <path class="cls-9" d="M120.47,206.99c-.65,12.13-8.62,32.99-24.3,41.37-.98.52-2.63,1.35-4.65,2.16-.74.3-1.54.59-2.37.86-.81.27-1.65.51-2.51.73l-14.94-14.94c.44-.64.92-1.25,1.42-1.82.52-.6,1.06-1.15,1.58-1.65.83-.8,1.63-1.49,2.25-2.02,12.64-10.82,22.62-19.36,29.75-25,3.66-2.89,6.47-4.95,8.59-6.28,2.16-1.36,3.17-1.69,3.57-1.78.94.92,1.86,3.57,1.6,8.38Z"/>
            </g>
            <g>
              <path class="cls-7" d="M70.68,232.9c6.97,6.97,13.93,13.93,20.9,20.9"/>
              <polygon class="cls-1" points="93.2 252.19 92.99 252.39 89.96 255.42 88.51 253.97 86.64 252.1 71.71 237.17 70.07 235.53 69.06 234.52 70.68 232.9 72.3 231.29 73.09 232.08 74.71 233.69 91.52 250.51 93.2 252.19"/>
            </g>
          </g>
          <g>
            <g>
              <path class="cls-9" d="M189.02,192.54c-.73.27-1.44.58-2.12.92-.71.35-1.38.72-2.01,1.1-1.17.7-2.19,1.41-3.01,1.99-29.72,20.95-44.58,31.43-43.33,34.85,3.22,8.83,40.7,9.99,57.77-8.71.47-.52,1.96-2.15,3.6-4.45.3-.42.61-.87.91-1.33.46-.69.91-1.43,1.35-2.2,2.52-4.44,4.44-10.04,2.47-15.13-1.21-3.13-4.02-6.38-7.79-7.52-2.7-.82-5.42-.41-7.87.49ZM196.22,194.23c3.29,1,5.46,3.94,6.32,6.16.89,2.29.81,4.76.2,7.18-.42,1.66-1.1,3.3-1.9,4.84-.41.79-.85,1.56-1.3,2.29-.46.74-.94,1.45-1.41,2.11-1.37,1.93-2.69,3.46-3.49,4.33-11.98,13.13-34.15,15.71-46.07,13.36-4.73-.93-7.06-2.47-7.73-3.61.18-.36.75-1.26,2.6-3.02,1.82-1.73,4.5-3.95,8.21-6.78,7.23-5.53,17.97-13.1,31.56-22.68.75-.53,1.72-1.22,2.86-1.9.63-.38,1.3-.75,2.01-1.1.68-.33,1.4-.64,2.14-.88,1.94-.65,4.01-.91,6.01-.31Z"/>
              <path class="cls-1" d="M180.57,194.68c-15.12,10.66-26.05,18.37-33.37,24.07-3.91,3.04-6.53,5.31-8.25,7.15-1.09,1.17-2.25,2.58-2.63,4.08-.18.72-.19,1.47.08,2.21,1.18,3.23,5.08,5.58,11.27,6.81,7.28,1.44,16.77,1.05,25.37-1.04,7.29-1.77,17.54-5.58,24.97-13.73,3.25-3.56,5.3-6.81,6.45-8.91,1.26-2.31,2.16-4.53,2.7-6.66.91-3.6.79-6.92-.37-9.92-1.29-3.33-4.4-7.41-9.25-8.88-7.09-2.15-14.02,2.74-16.98,4.82ZM196.22,194.23c3.29,1,5.46,3.94,6.32,6.16.89,2.29.81,4.76.2,7.18-.42,1.66-1.1,3.3-1.9,4.84-.41.79-.85,1.56-1.3,2.29-.46.74-.94,1.45-1.41,2.11-1.37,1.93-2.69,3.46-3.49,4.33-11.98,13.13-34.15,15.71-46.07,13.36-4.73-.93-7.06-2.47-7.73-3.61.18-.36.75-1.26,2.6-3.02,1.82-1.73,4.5-3.95,8.21-6.78,7.23-5.53,17.97-13.1,31.56-22.68.75-.53,1.72-1.22,2.86-1.9.63-.38,1.3-.75,2.01-1.1.68-.33,1.4-.64,2.14-.88,1.94-.65,4.01-.91,6.01-.31Z"/>
              <path class="cls-4" d="M196.22,194.23c3.29,1,5.46,3.94,6.32,6.16.89,2.29.81,4.76.2,7.18-.42,1.66-1.1,3.3-1.9,4.84l-10.63-17.87c1.94-.65,4.01-.91,6.01-.31Z"/>
              <path class="cls-9" d="M190.21,194.54l10.63,17.87c-.41.79-.85,1.56-1.3,2.29-.46.74-.94,1.45-1.41,2.11-1.37,1.93-2.69,3.46-3.49,4.33-11.98,13.13-34.15,15.71-46.07,13.36-4.73-.93-7.06-2.47-7.73-3.61.18-.36.75-1.26,2.6-3.02,1.82-1.73,4.5-3.95,8.21-6.78,7.23-5.53,17.97-13.1,31.56-22.68.75-.53,1.72-1.22,2.86-1.9.63-.38,1.3-.75,2.01-1.1.68-.33,1.4-.64,2.14-.88Z"/>
            </g>
            <polygon class="cls-1" points="188.05 190.91 203.16 216.31 199.23 218.65 198.13 216.81 186.06 196.52 184.89 194.56 184.12 193.25 186.08 192.08 188.05 190.91"/>
          </g>
        </g>
        <g>
          <path class="cls-9" d="M99.81,261.11c11.49-4.13,18.02,8.55,34.9,8.05,10.49-.31,12.36-5.34,22.97-4.47,8.3.68,14.78,4.38,18.81,7.24.88-11.45,1.79-28.47-3.92-47.64-3.61-12.11-9.8-28.87-20.88-47.55h-38.01c-11.07,18.68-17.27,35.44-20.88,47.55-5.85,19.65-9.33,43.88-4.68,45.57,2.54.92,4.2-6.06,11.68-8.75Z"/>
          <path class="cls-1" d="M176.5,274.22c-.47,0-.93-.14-1.32-.42-5.69-4.04-11.63-6.34-17.68-6.83-5.16-.42-7.94.66-11.17,1.9-2.94,1.14-6.27,2.42-11.55,2.58-8.81.26-15.11-2.9-20.18-5.44-5.26-2.63-9.05-4.54-14.02-2.75,0,0,0,0,0,0-3.59,1.29-5.63,3.74-7.27,5.7-.75.9-1.41,1.69-2.13,2.27-1.54,1.24-2.94,1.11-3.83.78-2.74-.99-3.34-4.49-3.55-7.03-.24-2.89-.09-6.74.46-11.44,1.03-8.82,3.41-20,6.36-29.91,4.95-16.62,12.05-32.79,21.1-48.07.41-.69,1.16-1.12,1.97-1.12h38.01c.81,0,1.56.43,1.97,1.12,9.05,15.27,16.15,31.45,21.1,48.07,2.6,8.71,4.07,17.63,4.52,27.26.37,7.93-.03,14.88-.51,21.21-.06.82-.56,1.55-1.31,1.9-.31.14-.64.22-.97.22ZM155.33,262.3c.8,0,1.64.03,2.54.11,5.68.46,11.26,2.31,16.62,5.49.81-12.98.61-27.12-4.1-42.95-4.72-15.86-11.45-31.3-19.99-45.92h-35.4c-8.55,14.62-15.27,30.06-19.99,45.92-2.74,9.2-4.93,19.3-6.03,27.73-1.23,9.52-.6,13.21-.16,14.51.32-.35.69-.79.99-1.15,1.78-2.14,4.47-5.37,9.23-7.08,6.81-2.45,12.06.18,17.62,2.97,5.08,2.55,10.34,5.18,17.99,4.96,4.49-.13,7.18-1.17,10.03-2.27,2.94-1.13,5.96-2.3,10.65-2.3Z"/>
        </g>
        <g>
          <g>
            <rect class="cls-9" x="112.56" y="221.91" width="42.04" height="31.94" rx="15.97" ry="15.97"/>
            <path class="cls-1" d="M146.21,256.14h-25.25c-5.89,0-10.68-4.79-10.68-10.68v-15.16c0-5.89,4.79-10.68,10.68-10.68h25.25c5.89,0,10.68,4.79,10.68,10.68v15.16c0,5.89-4.79,10.68-10.68,10.68ZM120.95,224.2c-3.37,0-6.1,2.74-6.1,6.1v15.16c0,3.37,2.74,6.1,6.1,6.1h25.25c3.37,0,6.1-2.74,6.1-6.1v-15.16c0-3.37-2.74-6.1-6.1-6.1h-25.25Z"/>
          </g>
          <g>
            <circle class="cls-4" cx="144.41" cy="231.85" r="3.64"/>
            <circle class="cls-4" cx="144.41" cy="243.91" r="3.64"/>
            <rect class="cls-2" x="126.3" y="229.3" width="11.37" height="5.1" rx="2.55" ry="2.55"/>
          </g>
          <path class="cls-1" d="M131.66,254.24h-4.57v-12.47h-5.2c-1.26,0-2.29-1.02-2.29-2.29v-16.05h4.57v13.76h5.2c1.26,0,2.29,1.02,2.29,2.29v14.75Z"/>
        </g>
      </g>
      <g>
        <g>
          <path class="cls-4" d="M228.27,76.35s21.92,8.31,24.18,12.37c4.18,7.52,3.4,51.75-8.15,63.28-4.52,4.51-37.77,8.73-37.77,8.73l21.74-84.39Z"/>
          <path class="cls-2" d="M206.53,160.74s33.24-4.22,37.77-8.74c4.51-4.5,7.38-13.99,8.95-24.33-.37.33-12.11,10.47-35.53-10.13-.01-.01-.03-.02-.04-.04l-11.14,43.23Z"/>
          <path class="cls-4" d="M60.58,160.74s-33.24-4.22-37.77-8.74c-4.51-4.5-7.38-13.99-8.95-24.33h0c-2.45-16.14-1.75-34.36.8-38.95,2.25-4.06,24.18-12.37,24.18-12.37l10.6,41.16,11.14,43.23Z"/>
          <path class="cls-2" d="M60.58,160.74s-33.24-4.22-37.77-8.74c-4.51-4.5-7.38-13.99-8.95-24.33.37.33,12.11,10.47,35.53-10.13.01-.01.03-.02.04-.04l11.14,43.23Z"/>
          <path class="cls-1" d="M229.81,79.35c2.86,1.12,6.83,2.75,10.67,4.55,8.18,3.84,9.84,5.72,10.02,5.95.21.41,1.28,2.8,1.8,10.13.4,5.61.33,12.24-.2,18.68-.59,7.2-1.72,13.87-3.27,19.29-1.66,5.81-3.78,10.12-6.12,12.46-.07.06-1.14.98-5.7,2.35-2.97.89-6.8,1.79-11.4,2.69-6.06,1.18-12.22,2.1-16.09,2.63l20.29-78.73M226.66,73.25l-23.25,90.24,3.41-.43c5.68-.72,34.28-4.56,39.12-9.4,12.58-12.55,13.17-57.74,8.55-66.06-2.48-4.46-20.06-11.4-25.39-13.42l-2.43-.92h0Z"/>
          <path class="cls-1" d="M37.3,79.35l20.29,78.73c-3.86-.53-10.03-1.45-16.09-2.63-4.6-.89-8.43-1.8-11.4-2.69-4.56-1.37-5.63-2.28-5.7-2.35-2.34-2.34-4.46-6.65-6.12-12.46-1.55-5.42-2.68-12.09-3.27-19.29-.53-6.44-.6-13.07-.2-18.68.52-7.33,1.59-9.72,1.8-10.13.19-.24,1.84-2.11,10.02-5.95,3.84-1.8,7.81-3.43,10.67-4.55M40.45,73.25l-2.43.92c-5.33,2.02-22.91,8.96-25.39,13.42-4.62,8.33-4.04,53.51,8.55,66.06,4.84,4.83,33.44,8.68,39.12,9.4l3.41.43-23.25-90.24h0Z"/>
        </g>
        <circle class="cls-9" cx="133.55" cy="114.18" r="101.65"/>
        <path class="cls-5" d="M235.21,114.17c0,56.14-45.51,101.65-101.65,101.65S31.9,170.31,31.9,114.17c0-5.93.51-11.74,1.49-17.38,8.25,47.85,49.96,84.26,100.17,84.26s91.92-36.4,100.16-84.26c.98,5.65,1.49,11.46,1.49,17.38Z"/>
        <path class="cls-1" d="M133.55,218.35c-57.44,0-104.18-46.73-104.18-104.18S76.11,10,133.55,10s104.18,46.73,104.18,104.18-46.73,104.18-104.18,104.18ZM133.55,14.57c-54.92,0-99.6,44.68-99.6,99.6s44.68,99.6,99.6,99.6,99.6-44.68,99.6-99.6S188.47,14.57,133.55,14.57Z"/>
        <polygon class="cls-10" points="133.67 132.62 133.67 133 133.43 132.81 133.67 132.62"/>
        <polygon class="cls-10" points="133.67 132.81 133.43 133 133.43 132.62 133.67 132.81"/>
        <path class="cls-1" d="M230.05,94.91c-16.17-39.86-54.05-65.61-96.5-65.61S53.24,55.03,37.06,94.85l-4.24-1.72C49.71,51.57,89.25,24.72,133.54,24.72s83.87,26.87,100.74,68.47l-4.24,1.72Z"/>
        <g class="cls-11">
          <path class="cls-1" d="M234.93,114.18c0,8.8-1.11,17.35-3.21,25.48,0,0,0,0,0,0-17.63,34.07-55.08,63.38-98.42,63.38s-80.78-29.31-98.42-63.38c0,0,0,0,0,0-1.25-4.85-2.16-9.84-2.69-14.95,22.79,25.6,55.93,44.23,92.82,44.23,47,0,87.94-30.23,109.12-66.61.07.17.13.33.19.49.42,3.73.63,7.52.63,11.35Z"/>
        </g>
        <path class="cls-1" d="M235.2,114.18c0,8.8-1.11,17.35-3.21,25.48,0,0,0,0,0,0-17.63,34.07-55.08,63.38-98.42,63.38s-80.78-29.31-98.42-63.38c0,0,0,0,0,0-2.11-8.14-3.22-16.69-3.22-25.48,0-3.85.21-7.65.64-11.38,13.71-37.94,53.75-65.4,101.01-65.4s87.31,27.47,101.02,65.42c.42,3.73.63,7.52.63,11.35Z"/>
        <ellipse class="cls-8" cx="133.55" cy="101.65" rx="78.03" ry="55.24"/>
        <g>
          <g>
            <circle class="cls-9" cx="244.49" cy="109.96" r="4.25"/>
            <circle class="cls-9" cx="243.59" cy="126.97" r="4.25"/>
          </g>
          <g>
            <circle class="cls-9" cx="22.62" cy="109.96" r="4.25"/>
            <circle class="cls-9" cx="23.51" cy="126.97" r="4.25"/>
          </g>
        </g>
        <path class="cls-9" d="M134.01,164.87c-.83,0-1.65-.2-2.4-.61-1.87-1.01-10.02-5.43-12.27-6.67-2.46-1.35-3.36-4.43-2.01-6.89,1.35-2.46,4.43-3.36,6.89-2.01,1.66.91,6.53,3.56,9.7,5.28,2.98-1.75,7.74-4.54,8.8-5.17,2.4-1.45,5.52-.68,6.97,1.72,1.45,2.4.68,5.52-1.72,6.97-1.62.98-10.99,6.46-11.39,6.69-.79.46-1.68.69-2.56.69Z"/>
        <g>
          <ellipse class="cls-9" cx="76.14" cy="122.73" rx="13.76" ry="21.5"/>
          <ellipse class="cls-9" cx="190.97" cy="122.71" rx="13.76" ry="21.5"/>
        </g>
      </g>
    </g>
    <g>
      <path class="cls-9" d="M172.05,256.01h-81.31c-5.51,0-10.4-3.67-10.93-8.28l-4.73-40.98c-.65-5.62,3.89-10.27,10.15-10.27h92.35c6.26,0,10.8,4.65,10.15,10.27l-4.73,40.98c-.53,4.61-5.42,8.28-10.93,8.28Z"/>
      <path class="cls-1" d="M172.05,258.3h-81.31c-6.74,0-12.54-4.53-13.21-10.31l-4.73-40.98c-.37-3.21.6-6.3,2.74-8.7,2.34-2.62,5.87-4.13,9.68-4.13h92.35c3.82,0,7.35,1.5,9.68,4.13,2.14,2.4,3.11,5.48,2.74,8.7l-4.73,40.98c-.67,5.78-6.47,10.31-13.21,10.31ZM85.22,198.76c-2.51,0-4.8.95-6.27,2.59-1.26,1.41-1.83,3.23-1.61,5.13l4.73,40.98c.4,3.45,4.28,6.26,8.66,6.26h81.31c4.38,0,8.26-2.81,8.66-6.26l4.73-40.98c.22-1.9-.35-3.72-1.61-5.13-1.47-1.65-3.75-2.59-6.27-2.59h-92.35Z"/>
    </g>
    <ellipse class="cls-6" cx="131.4" cy="228.17" rx="8.23" ry="7.44"/>
    <g>
      <g>
        <ellipse class="cls-3" cx="102.11" cy="264.39" rx="15.74" ry="21.54" transform="translate(-143.13 122.31) rotate(-38.8)"/>
        <path class="cls-1" d="M107.59,286.16c-1.67,0-3.41-.24-5.2-.72-5.33-1.43-10.42-4.9-14.32-9.76-3.91-4.86-6.2-10.57-6.45-16.09-.27-5.78,1.71-10.67,5.57-13.78,3.86-3.1,9.06-3.98,14.65-2.48,5.33,1.43,10.42,4.9,14.32,9.76,3.91,4.86,6.2,10.57,6.45,16.09.27,5.78-1.71,10.67-5.57,13.78-2.63,2.11-5.88,3.2-9.46,3.2ZM96.67,247.2c-2.55,0-4.82.74-6.62,2.18-2.69,2.16-4.07,5.72-3.87,10,.21,4.55,2.15,9.32,5.45,13.43,3.3,4.11,7.55,7.02,11.95,8.21,4.14,1.11,7.91.54,10.6-1.63,2.69-2.16,4.07-5.72,3.87-10-.21-4.55-2.15-9.32-5.45-13.43h0c-3.3-4.11-7.55-7.02-11.95-8.21-1.38-.37-2.71-.55-3.98-.55Z"/>
      </g>
      <g>
        <ellipse class="cls-3" cx="163.27" cy="264.39" rx="21.54" ry="15.74" transform="translate(-145.09 225.98) rotate(-51.2)"/>
        <path class="cls-1" d="M157.8,286.16c-3.57,0-6.83-1.08-9.46-3.2-3.86-3.1-5.84-8-5.57-13.78.25-5.51,2.55-11.23,6.45-16.09h0c3.91-4.86,8.99-8.33,14.32-9.76,5.59-1.5,10.79-.62,14.65,2.48,3.86,3.1,5.84,8,5.57,13.78-.25,5.51-2.55,11.23-6.45,16.09-3.91,4.86-8.99,8.33-14.32,9.76-1.78.48-3.52.72-5.2.72ZM168.72,247.2c-1.27,0-2.6.18-3.98.55-4.4,1.18-8.64,4.1-11.95,8.21h0c-3.3,4.11-5.24,8.88-5.45,13.43-.2,4.28,1.18,7.84,3.87,10,2.69,2.16,6.46,2.74,10.6,1.63,4.4-1.18,8.64-4.1,11.95-8.21,3.3-4.11,5.24-8.88,5.45-13.43.2-4.28-1.18-7.84-3.87-10-1.8-1.44-4.07-2.18-6.62-2.18ZM151.01,254.53h0,0Z"/>
      </g>
    </g>
  </g>
</svg>