<svg version="1.1" xmlns="http://www.w3.org/2000/svg" xmlns:xlink="http://www.w3.org/1999/xlink" x="0px" y="0px" viewBox="0 0 449.2 405" style="enable-background:new 0 0 449.2 405;" xml:space="preserve">
<style type="text/css">
  
  #star1 {
  transform-origin: 109.0594px 358.9px; /* Ajusta manualmente si es necesario */
  animation: pulse1 1s infinite ease-in-out alternate;
}

@keyframes pulse1 {
  from { transform: scale(1); }
  to { transform: scale(0.5); }
}


#star2 {
  transform-origin: 129.2215px 338.7383px; /* Ajusta manualmente si es necesario */
  animation: pulse2 1s infinite ease-in-out alternate;
}

@keyframes pulse2 {
  from { transform: scale(1); }
  to { transform: scale(1.5); }
}

#star3 {
  transform-origin: 395.951px 76.8226px; /* Ajusta manualmente si es necesario */
  animation: pulse1 1s infinite ease-in-out alternate;
}

#star4 {
  transform-origin: 370.7644px 51.636px; /* Ajusta manualmente si es necesario */
  animation: pulse2 1s infinite ease-in-out alternate;
}

#head, #mouth { 
  transform-origin: 224.5864px 154.567px;
  animation: RotateFace 3s ease-in-out infinite; /* Se repite todo el ciclo */
}


@keyframes RotateFace {
  0% { transform: rotate(0deg); }
  10% { transform: rotate(-5deg) translateX(-10px);  }
  20% { transform: rotate(-5deg) translateX(-10px);  }
  30% { transform: rotate(0deg) translateX(0px); }
  40% { transform: rotate(0deg); }
  50% { transform: rotate(0deg); }
  60% { transform: rotate(0deg); }
  100% { transform: rotate(0deg); }
}

#eyes {
  transform-origin: 224.5864px 168.7996px;
  animation: EyesAnimation 3s ease-in-out infinite;
}

@keyframes EyesAnimation {
  0% { transform: rotate(0deg); }
  10% { transform: rotate(-5deg) translateX(-10px); } 
  20% { transform: rotate(-5deg) translateX(-10px); }
  30% { transform: rotate(0deg) translateX(0px); }
  40% { transform: rotate(0deg) scale(1, 1); }
  50% { transform: rotate(0deg) scale(1, 0.1); }
  60% { transform: rotate(0deg) scale(1, 1); }
  100% { transform: rotate(0deg) scale(1, 1); }

}



#armR { 
  transform-origin: 256.4386px 284.533px;
  animation: ArmAnimation 3s ease-in-out infinite; /* Se repite todo el ciclo */
}


@keyframes ArmAnimation {
  0% { transform: rotate(0deg); }
  10% { transform: rotate(-75deg) translateX(5px); }
  20% { transform: rotate(-75deg) translateX(5px); }
  30% { transform: rotate(0deg) translateX(0px); }
  40% { transform: rotate(0deg); }
  50% { transform: rotate(0deg); }
  60% { transform: rotate(0deg); }
  100% { transform: rotate(0deg); }
}



  
	.st0{fill:#FFFFFF;}
	
		.st1{opacity:0.41;fill:url(#SVGID_1_);stroke:url(#SVGID_00000026161308149627176010000003419281564065122445_);stroke-miterlimit:10;}
	.st2{fill:#0A0613;}
	.st3{fill:#9013FE;}
	.st4{fill:none;}
	.st5{fill:#7105E2;}
	.st6{fill:#E8D2FF;}
	.st7{fill:#D8D8D8;}
	.st8{opacity:0.35;}
	.st9{opacity:0.1;fill:#E8D2FF;enable-background:new    ;}
</style>
<!-- <g id="marco">
	<g>
		<g>
			<polygon class="st0" points="12.5,269.2 29.4,269.2 9.5,289.1 19.2,298.8 38.8,279.3 38.8,295.6 50.7,295.6 50.7,257.4 
				12.5,257.4 			"></polygon>
		</g>
		<linearGradient id="SVGID_1_" gradientUnits="userSpaceOnUse" x1="25.6565" y1="7.1225" x2="451.5395" y2="364.4808">
			<stop offset="0" style="stop-color:#FFFFFF;stop-opacity:0"></stop>
			<stop offset="0.5" style="stop-color:#FFFFFF;stop-opacity:0.6"></stop>
			<stop offset="1" style="stop-color:#FFFFFF;stop-opacity:0"></stop>
		</linearGradient>
		
			<linearGradient id="SVGID_00000162318996652215830780000010371552655968399282_" gradientUnits="userSpaceOnUse" x1="1.6642" y1="202.5" x2="447.5087" y2="202.5">
			<stop offset="0" style="stop-color:#FFFFFF;stop-opacity:0.8"></stop>
			<stop offset="1" style="stop-color:#FFFFFF;stop-opacity:0.2"></stop>
		</linearGradient>
		
			<path style="opacity:0.41;fill:url(#SVGID_1_);stroke:url(#SVGID_00000162318996652215830780000010371552655968399282_);stroke-miterlimit:10;" d="
			M391,2.5H58.2c-30.8,0-56,21.6-56,48.1v163.7c0,15.3,14.6,27.8,32.4,27.8h0c19.6,0,35.4,13.6,35.4,30.4v82
			c0,26.4,25.2,48.1,56,48.1H391c30.8,0,56-21.6,56-48.1V238.7V230V50.5C447,24.1,421.8,2.5,391,2.5z"></path>
	</g>
</g> -->
<g id="star1">
	<g>
		<path class="st0" d="M88.9,358.9c19,0.6,19.5,1.2,20.2,20.2c0.6-19,1.2-19.5,20.2-20.2c-19-0.6-19.5-1.2-20.2-20.2
			C108.4,357.7,107.9,358.3,88.9,358.9z"></path>
	</g>
</g>
<g id="star2">
	<g>
		<path class="st0" d="M118.9,338.7c9.7,0.3,10,0.6,10.3,10.3c0.3-9.7,0.6-10,10.3-10.3c-9.7-0.3-10-0.6-10.3-10.3
			C128.9,338.1,128.6,338.4,118.9,338.7z"></path>
	</g>
</g>
<g id="star3">
	<g>
		<path class="st0" d="M370.8,76.8c23.7,0.8,24.4,1.5,25.2,25.2c0.8-23.7,1.5-24.4,25.2-25.2c-23.7-0.8-24.4-1.5-25.2-25.2
			C395.1,75.4,394.5,76,370.8,76.8z"></path>
	</g>
</g>
<g id="star4">
	<g>
		<path class="st0" d="M356.6,51.6c13.3,0.5,13.7,0.8,14.1,14.1c0.5-13.3,0.8-13.7,14.1-14.1c-13.3-0.5-13.7-0.8-14.1-14.1
			C370.3,50.8,369.9,51.2,356.6,51.6z"></path>
	</g>
</g>
<g id="tube">
	<path class="st2" d="M198.5,324.1c-11.1,0-21.8-3.7-30.7-10.7c-10-7.9-17-19.2-19.6-32c-4.6-22.1,5.3-41.3,8.4-46.6
		c2.3-4,7.5-5.4,11.5-3c4,2.3,5.4,7.5,3,11.5c-1.7,2.9-9.9,18.1-6.4,34.8c3.6,17.3,17.8,29.3,33.9,29.3c1.3,0,2.5-0.1,3.8-0.2
		c4.6-0.5,8.8,2.8,9.3,7.4s-2.8,8.8-7.4,9.3C202.3,324,200.4,324.1,198.5,324.1L198.5,324.1z"></path>
</g>
<g id="armL">
	<g>
		<g>
			<path class="st0" d="M203,251.8c-3.5-2.4-19.8,11.5-52.2,39.3c-0.8,0.7-1.8,1.5-2.8,2.5c-0.6,0.6-1.2,1.2-1.9,1.9
				c-0.6,0.7-1.2,1.4-1.7,2.1c-1.9,2.6-3.3,5.7-3.1,9.2c0.2,4.6,3.1,8.8,6.3,11c5.4,3.8,12.6,3.1,18.5,1.4c1-0.3,2-0.6,2.9-0.9
				c0.9-0.3,1.7-0.6,2.4-0.9c2.5-1,4.4-2,5-2.4C202.6,301.1,212.1,258,203,251.8z M175.1,312.7c-1.2,0.6-3.1,1.6-5.5,2.5
				c-0.9,0.4-1.8,0.7-2.8,1c-1,0.3-1.9,0.6-2.9,0.9c-5,1.2-10.6,1.5-14.7-1.4c-2.3-1.6-5-4.9-5.2-9c-0.1-2.6,0.9-5,2.4-7.2
				c0.5-0.8,1.1-1.5,1.7-2.1c0.6-0.7,1.2-1.4,1.9-1.9c1-0.9,1.9-1.7,2.6-2.4c14.8-12.7,26.6-22.7,35-29.4c4.3-3.4,7.6-5.8,10.1-7.4
				c2.5-1.6,3.7-2,4.2-2.1c1.1,1.1,2.2,4.2,1.9,9.8C202.8,278.4,193.5,302.9,175.1,312.7L175.1,312.7z"></path>
			<path class="st2" d="M204.5,249.6c-2.4-1.6-5.5-0.3-7.9,1.1c-2.6,1.4-5.9,3.8-10.5,7.3c-8.6,6.7-20.5,16.9-37.1,31
				c-3.2,2.8-10.8,9.2-10.4,17.9c0.3,6,4,10.7,7.4,13.1c3.1,2.2,6.8,3.3,11.2,3.3c2.6,0,5.4-0.4,8.4-1.2c2.7-0.7,7-2.1,12-4.8
				c11.4-6.1,18.7-16.7,22.9-24.5c4.9-9.2,8.1-19.9,8.5-28.6c0-0.8,0.1-1.5,0.1-2.2C209,256,207.5,251.6,204.5,249.6L204.5,249.6z
				 M203.6,264.1c-0.8,14.3-10.1,38.8-28.6,48.6c-1.2,0.6-3.1,1.6-5.5,2.5c-0.9,0.4-1.8,0.7-2.8,1c-1,0.3-1.9,0.6-2.9,0.9
				c-5,1.2-10.6,1.5-14.7-1.4c-2.3-1.6-5-4.9-5.2-9c-0.1-2.6,0.9-5,2.4-7.2c0.5-0.8,1.1-1.5,1.7-2.1c0.6-0.7,1.2-1.4,1.9-1.9
				c1-0.9,1.9-1.7,2.6-2.4c14.8-12.7,26.6-22.7,35-29.4c4.3-3.4,7.6-5.8,10.1-7.4c2.5-1.6,3.7-2,4.2-2.1
				C202.8,255.3,203.9,258.5,203.6,264.1L203.6,264.1z"></path>
			<path class="st3" d="M163.9,317.1c-5,1.2-10.6,1.5-14.7-1.4c-2.3-1.6-5-4.9-5.2-9c-0.1-2.6,0.9-5,2.4-7.2L163.9,317.1z"></path>
			<path class="st0" d="M203.6,264.1c-0.8,14.3-10.1,38.8-28.6,48.6c-1.2,0.6-3.1,1.6-5.5,2.5c-0.9,0.4-1.8,0.7-2.8,1
				c-1,0.3-1.9,0.6-2.9,0.9l-17.6-17.6c0.5-0.8,1.1-1.5,1.7-2.1c0.6-0.7,1.2-1.4,1.9-1.9c1-0.9,1.9-1.7,2.6-2.4
				c14.8-12.7,26.6-22.7,35-29.4c4.3-3.4,7.6-5.8,10.1-7.4c2.5-1.6,3.7-2,4.2-2.1C202.8,255.3,203.9,258.5,203.6,264.1L203.6,264.1z
				"></path>
		</g>
		<g>
			<path class="st4" d="M145.1,294.6c8.2,8.2,16.4,16.4,24.6,24.6"></path>
			<polygon class="st2" points="171.6,317.2 171.3,317.5 167.8,321 166.1,319.3 163.9,317.1 146.3,299.6 144.4,297.6 143.2,296.5 
				145.1,294.6 147,292.7 147.9,293.6 149.8,295.5 169.6,315.3 			"></polygon>
		</g>
	</g>
</g>
<g id="armR">
	<g>
		<path class="st0" d="M305.1,298c-0.5-0.8-1.1-1.5-1.7-2.1c-0.6-0.7-1.2-1.4-1.8-2c-1.1-1.1-2.2-2.1-3.1-2.8
			c-32.5-27.8-48.7-41.7-52.2-39.3c-9.1,6.2,0.4,49.3,26.6,63.3c0.7,0.4,3,1.6,6.1,2.8c0.6,0.2,1.2,0.4,1.8,0.7
			c0.9,0.3,1.9,0.6,2.9,0.9c5.8,1.6,12.7,2.2,18-1.6c3.2-2.3,6.1-6.4,6.3-11C308.1,303.5,306.8,300.6,305.1,298z M305.2,306.7
			c-0.2,4-2.9,7.4-5.2,9c-2.4,1.7-5.2,2.3-8.1,2.3c-2,0-4.1-0.3-6.1-0.8c-1-0.2-2-0.5-3-0.8c-1-0.3-1.9-0.6-2.8-1
			c-2.6-1-4.7-2.1-5.9-2.7c-18.4-9.8-27.8-34.4-28.5-48.6c-0.3-5.7,0.8-8.8,1.9-9.8c0.5,0.1,1.7,0.5,4.2,2.1c2.5,1.6,5.8,4,10.1,7.4
			c8.4,6.6,20.1,16.7,35,29.4c0.8,0.7,1.9,1.6,3,2.7c0.6,0.6,1.2,1.3,1.8,2c0.6,0.7,1.1,1.4,1.6,2.2
			C304.4,302,305.3,304.3,305.2,306.7L305.2,306.7z"></path>
		<path class="st3" d="M305.2,306.7c-0.2,4-2.9,7.4-5.2,9c-2.4,1.7-5.2,2.3-8.1,2.3c-2,0-4.1-0.3-6.1-0.8l17.3-17.3
			C304.4,302,305.3,304.3,305.2,306.7L305.2,306.7z"></path>
		<path class="st0" d="M303.1,300l-17.3,17.3c-1-0.2-2-0.5-3-0.8c-1-0.3-1.9-0.6-2.8-1c-2.6-1-4.7-2.1-5.9-2.7
			c-18.4-9.8-27.8-34.4-28.5-48.6c-0.3-5.7,0.8-8.8,1.9-9.8c0.5,0.1,1.7,0.5,4.2,2.1c2.5,1.6,5.8,4,10.1,7.4
			c8.4,6.6,20.1,16.7,35,29.4c0.8,0.7,1.9,1.6,3,2.7c0.6,0.6,1.2,1.3,1.8,2C302.1,298.5,302.6,299.2,303.1,300L303.1,300z"></path>
		<path class="st2" d="M300.2,289L300.2,289c-16.5-14.1-28.5-24.4-37.1-31c-4.6-3.6-7.9-5.9-10.5-7.3c-1.6-0.9-3.6-1.8-5.4-1.8
			c-0.9,0-1.7,0.2-2.5,0.7c-3.3,2.3-4.9,7.4-4.5,14.8c0.5,8.7,3.7,19.4,8.5,28.6c4.1,7.8,11.4,18.4,22.9,24.5c5,2.7,9.3,4.1,12,4.8
			c3,0.8,5.8,1.2,8.4,1.2c4.4,0,8.1-1.1,11.2-3.3c3.4-2.4,7.2-7.2,7.4-13.1C311,298.3,303.4,291.8,300.2,289z M245.6,264.1
			c-0.3-5.7,0.8-8.8,1.9-9.8c0.5,0.1,1.7,0.5,4.2,2.1c2.5,1.6,5.8,4,10.1,7.4c8.4,6.6,20.1,16.7,35,29.4c0.8,0.7,1.9,1.6,3,2.7
			l-19.6,19.6l0,0c-2.6-1-4.7-2.1-5.9-2.7C255.7,302.9,246.3,278.4,245.6,264.1z M305.2,306.7L305.2,306.7c-0.2,4-2.9,7.4-5.2,9
			c-2.4,1.7-5.2,2.3-8.1,2.3c-2,0-4.1-0.3-6.1-0.8l17.3-17.3c0,0,0,0,0,0C304.4,302,305.3,304.3,305.2,306.7z"></path>
	</g>
</g>
<g id="body">
	<g>
		<g>
			<path class="st0" d="M271.5,289.7c-4.2-14.2-11.5-33.9-24.5-55.9h-44.7c-13,22-20.3,41.6-24.5,55.9c-6.8,22.9-11.6,39.8-4.1,57.2
				c1.4,3.3,10.1,22.5,24.5,23.2c12.9,0.6,22.7-13.9,26.4-19.5c3.7,5.7,13.5,20.2,26.4,19.5c14.5-0.7,23.1-19.9,24.5-23.2
				C283.1,329.5,278.3,312.7,271.5,289.7L271.5,289.7z"></path>
			<path class="st2" d="M250.2,372.9c-6,0-11.9-2.7-17.7-8.2c-3.3-3.1-6-6.6-7.9-9.3c-1.9,2.7-4.6,6.2-7.9,9.3
				c-6.1,5.7-12.3,8.4-18.6,8.1c-6.9-0.3-13.3-4.3-19.1-11.7c-4.2-5.3-6.8-11-7.7-13.1c-3.7-8.5-4.8-17.4-3.5-28
				c1.1-9.1,3.8-18.7,7.5-31.1c5.8-19.5,14.2-38.5,24.8-56.5c0.5-0.8,1.4-1.3,2.3-1.3h44.7c1,0,1.8,0.5,2.3,1.3
				c10.6,17.9,19,37,24.8,56.5c3.7,12.5,6.4,22,7.5,31.1c1.3,10.5,0.1,19.4-3.5,27.9c-0.9,2.2-3.6,7.8-7.7,13.1
				c-5.8,7.4-12.2,11.3-19.1,11.7C250.8,372.8,250.5,372.9,250.2,372.9L250.2,372.9z M224.6,347.9c0.9,0,1.7,0.5,2.2,1.2
				c3,4.6,12.1,18.3,23.4,18.3c0.2,0,0.4,0,0.7,0c12.6-0.6,20.7-18.1,22.2-21.6c6.9-16.1,2.9-31.5-4.2-55.4l0,0
				c-5.5-18.6-13.5-36.8-23.5-54h-41.6c-10,17.2-17.9,35.3-23.5,54c-7.1,23.9-11.1,39.3-4.2,55.4c1.5,3.5,9.6,20.9,22.2,21.6
				c11.6,0.6,21-13.7,24.1-18.3C222.8,348.4,223.7,347.9,224.6,347.9L224.6,347.9z"></path>
		</g>
		<g>
			<path class="st0" d="M205.9,345.6c11.6,5,23.4,5.2,35.3,0"></path>
			<path class="st2" d="M223.6,352.1c-6.2,0-12.5-1.3-18.8-4c-1.4-0.6-2-2.2-1.4-3.5c0.6-1.4,2.2-2,3.5-1.4
				c11.3,4.8,22.1,4.9,33.1,0c1.4-0.6,2.9,0,3.5,1.4c0.6,1.4,0,2.9-1.4,3.5C236.1,350.7,229.9,352.1,223.6,352.1L223.6,352.1z"></path>
		</g>
		<g>
			<g>
				<path class="st0" d="M212.7,287.3h23.8c7.1,0,12.8,5.7,12.8,12.8v11.9c0,7.1-5.7,12.8-12.8,12.8h-23.8
					c-7.1,0-12.8-5.7-12.8-12.8v-11.9C199.9,293.1,205.6,287.3,212.7,287.3z"></path>
				<path class="st2" d="M239.4,327.6h-29.7c-6.9,0-12.5-5.6-12.5-12.5v-17.8c0-6.9,5.6-12.5,12.5-12.5h29.7
					c6.9,0,12.5,5.6,12.5,12.5V315C252,321.9,246.3,327.6,239.4,327.6z M209.7,290c-4,0-7.2,3.2-7.2,7.2V315c0,4,3.2,7.2,7.2,7.2
					h29.7c4,0,7.2-3.2,7.2-7.2v-17.8c0-4-3.2-7.2-7.2-7.2H209.7z"></path>
			</g>
			<g>
				<circle class="st3" cx="237.3" cy="299" r="4.3"></circle>
				<circle class="st3" cx="237.3" cy="313.2" r="4.3"></circle>
				<path class="st5" d="M218.1,296h9.3c1.1,0,2,0.9,2,2v1.9c0,1.1-0.9,2-2,2h-9.3c-1.1,0-2-0.9-2-2v-1.9
					C216,296.9,217,296,218.1,296z"></path>
			</g>
			<path class="st2" d="M222.3,325.3H217v-14.6h-6.1c-1.5,0-2.7-1.2-2.7-2.7v-18.9h5.4v16.2h6.1c1.5,0,2.7,1.2,2.7,2.7V325.3
				L222.3,325.3z"></path>
		</g>
	</g>
</g>
<g id="head">
	<g>
		<g>
			<path class="st3" d="M335.9,110.1c0,0,25.8,9.8,28.4,14.5c4.9,8.8,4,60.8-9.6,74.4c-5.3,5.3-44.4,10.3-44.4,10.3L335.9,110.1
				L335.9,110.1z"></path>
			<path class="st5" d="M310.3,209.3c0,0,39.1-5,44.4-10.3c5.3-5.3,8.7-16.4,10.5-28.6c-0.4,0.4-14.2,12.3-41.8-11.9c0,0,0,0,0,0
				L310.3,209.3z"></path>
			<path class="st3" d="M138.8,209.3c0,0-39.1-5-44.4-10.3c-5.3-5.3-8.7-16.4-10.5-28.6l0,0c-2.9-19-2.1-40.4,0.9-45.8
				c2.6-4.8,28.4-14.5,28.4-14.5l12.5,48.4L138.8,209.3L138.8,209.3z"></path>
			<path class="st5" d="M138.8,209.3c0,0-39.1-5-44.4-10.3c-5.3-5.3-8.7-16.4-10.5-28.6c0.4,0.4,14.2,12.3,41.8-11.9c0,0,0,0,0,0
				L138.8,209.3z"></path>
			<path class="st2" d="M337.7,113.6c3.4,1.3,8,3.2,12.5,5.4c9.6,4.5,11.6,6.7,11.8,7c0.2,0.5,1.5,3.3,2.1,11.9
				c0.5,6.6,0.4,14.4-0.2,22c-0.7,8.5-2,16.3-3.8,22.7c-1.9,6.8-4.4,11.9-7.2,14.6c-0.1,0.1-1.3,1.2-6.7,2.8c-3.5,1-8,2.1-13.4,3.2
				c-7.1,1.4-14.4,2.5-18.9,3.1L337.7,113.6 M334,106.5l-27.3,106l4-0.5c6.7-0.8,40.3-5.4,46-11c14.8-14.8,15.5-67.8,10-77.6
				c-2.9-5.2-23.6-13.4-29.8-15.8L334,106.5L334,106.5L334,106.5z"></path>
			<path class="st2" d="M111.5,113.6l23.8,92.5c-4.5-0.6-11.8-1.7-18.9-3.1c-5.4-1.1-9.9-2.1-13.4-3.2c-5.4-1.6-6.6-2.7-6.7-2.8
				c-2.8-2.8-5.2-7.8-7.2-14.6c-1.8-6.4-3.1-14.2-3.8-22.7c-0.6-7.6-0.7-15.4-0.2-21.9c0.6-8.6,1.9-11.4,2.1-11.9
				c0.2-0.3,2.2-2.5,11.8-7C103.4,116.9,108.1,115,111.5,113.6 M115.2,106.5l-2.9,1.1c-6.3,2.4-26.9,10.5-29.8,15.8
				c-5.4,9.8-4.7,62.9,10,77.6c5.7,5.7,39.3,10.2,46,11l4,0.5L115.2,106.5L115.2,106.5z"></path>
		</g>
		<circle class="st0" cx="224.6" cy="154.6" r="119.5"></circle>
		<path class="st6" d="M344,154.6c0,66-53.5,119.5-119.5,119.5s-119.5-53.5-119.5-119.5c0-7,0.6-13.8,1.7-20.4
			c9.7,56.2,58.7,99,117.7,99s108-42.8,117.7-99C343.4,140.8,344,147.6,344,154.6L344,154.6z"></path>
		<path class="st2" d="M224.6,277c-67.5,0-122.4-54.9-122.4-122.4S157.1,32.1,224.6,32.1S347,87.1,347,154.6S292.1,277,224.6,277
			L224.6,277z M224.6,37.5c-64.5,0-117,52.5-117,117s52.5,117,117,117s117-52.5,117-117S289.1,37.5,224.6,37.5z"></path>
		<polygon class="st7" points="224.7,176.2 224.7,176.7 224.4,176.5 		"></polygon>
		<polygon class="st7" points="224.7,176.5 224.4,176.7 224.4,176.2 		"></polygon>
		<path class="st2" d="M338,131.9c-19-46.8-63.5-77.1-113.4-77.1s-94.4,30.2-113.4,77l-5-2c19.8-48.8,66.3-80.4,118.4-80.4
			S323.1,81,343,129.9L338,131.9L338,131.9z"></path>
		<g class="st8">
			<path class="st2" d="M343.7,154.6c0,10.3-1.3,20.4-3.8,29.9c0,0,0,0,0,0c-20.7,40-64.7,74.5-115.7,74.5s-94.9-34.4-115.7-74.5
				c0,0,0,0,0,0c-1.5-5.7-2.5-11.6-3.2-17.6c26.8,30.1,65.7,52,109.1,52c55.2,0,103.3-35.5,128.2-78.3c0.1,0.2,0.2,0.4,0.2,0.6
				C343.5,145.6,343.7,150.1,343.7,154.6L343.7,154.6z"></path>
		</g>
		<path class="st2" d="M344,154.6c0,10.3-1.3,20.4-3.8,29.9c0,0,0,0,0,0c-20.7,40-64.7,74.5-115.7,74.5s-94.9-34.4-115.7-74.5
			c0,0,0,0,0,0c-2.5-9.6-3.8-19.6-3.8-29.9c0-4.5,0.3-9,0.8-13.4C122,96.6,169,64.3,224.6,64.3s102.6,32.3,118.7,76.9
			C343.8,145.6,344,150.1,344,154.6L344,154.6z"></path>
		<ellipse class="st9" cx="224.6" cy="139.9" rx="91.7" ry="64.9"></ellipse>
		<g>
			<g>
				<circle class="st0" cx="357.7" cy="149.6" r="5"></circle>
				<circle class="st0" cx="356.6" cy="169.6" r="5"></circle>
			</g>
			<g>
				<circle class="st0" cx="97" cy="149.6" r="5"></circle>
				<circle class="st0" cx="98" cy="169.6" r="5"></circle>
			</g>
		</g>
	</g>
</g>
<g id="eyes">
	<g>
		<ellipse class="st0" cx="157.1" cy="168.8" rx="16.2" ry="25.3"></ellipse>
		<ellipse class="st0" cx="292.1" cy="168.8" rx="16.2" ry="25.3"></ellipse>
	</g>
</g>
<g id="mouth">
	<path class="st0" d="M225.6,218.4c-1.3,0.1-2.6-0.2-3.7-0.9c-1.9-1.2-11.8-7.2-13.5-8.3c-2.8-1.9-3.6-5.8-1.6-8.6s5.8-3.6,8.6-1.6
		c0.9,0.6,5.5,3.4,9.6,5.9c3.2-2.1,7.8-5.2,8.9-5.9c2.8-1.9,6.7-1.2,8.6,1.6c1.9,2.8,1.2,6.7-1.6,8.6c-1.8,1.2-11.9,7.9-12.3,8.2
		C227.6,218,226.6,218.3,225.6,218.4L225.6,218.4z"></path>
</g>
</svg>