<?xml version="1.0" encoding="UTF-8"?>
<svg id="Layer_1" data-name="Layer 1" xmlns="http://www.w3.org/2000/svg" viewBox="0 0 272.52 290.69">
  <defs>
    <style>
      .cls-1 {
        opacity: .5;
      }

      .cls-2 {
        fill: #0a0613;
      }

      .cls-2, .cls-3, .cls-4, .cls-5, .cls-6, .cls-7, .cls-8 {
        stroke-width: 0px;
      }

      .cls-3 {
        fill: #7105e2;
      }

      .cls-4 {
        fill: #9013fe;
      }

      .cls-5, .cls-6 {
        fill: #e8d2ff;
      }

      .cls-9 {
        opacity: .35;
      }

      .cls-6 {
        opacity: .1;
      }

      .cls-7 {
        fill: #fff;
      }

      .cls-8 {
        fill: #d8d8d8;
      }
    </style>
  </defs>
  <path class="cls-2" d="M103.33,237.21c-.17,0-.34,0-.51-.02-11.16-.79-21.4-5.9-28.84-14.39-7.14-8.15-11.18-18.75-11.38-29.87-.34-19.17,10.9-33.68,14.36-37.67,2.58-2.98,7.1-3.31,10.08-.73,2.99,2.58,3.31,7.1.73,10.08-1.86,2.15-11.13,13.61-10.87,28.07.29,16.18,11.87,29.19,26.93,30.25,3.94.28,6.9,3.69,6.63,7.63-.27,3.77-3.4,6.65-7.12,6.65Z"/>
  <g>
    <g>
      <path class="cls-7" d="M210.36,232.79c-.23-.75-.5-1.47-.8-2.16-.31-.72-.65-1.41-.99-2.06-.64-1.2-1.29-2.26-1.82-3.11-19.33-30.8-29-46.2-32.48-45.13-8.99,2.74-12.16,40.11,5.61,58.16.49.5,2.04,2.07,4.25,3.84.41.32.83.65,1.28.98.67.49,1.38.99,2.13,1.47,4.29,2.75,9.79,4.98,14.98,3.28,3.19-1.04,6.58-3.68,7.92-7.37.96-2.65.7-5.39-.07-7.88ZM208.28,239.89c-1.17,3.23-4.23,5.24-6.49,5.98-2.33.76-4.8.56-7.18-.19-1.64-.51-3.24-1.27-4.73-2.15-.77-.45-1.51-.93-2.21-1.42-.72-.5-1.4-1.01-2.03-1.52-1.85-1.47-3.31-2.87-4.14-3.72-12.46-12.67-13.86-34.95-10.87-46.72,1.19-4.67,2.84-6.92,4.02-7.52.35.2,1.22.82,2.88,2.76,1.63,1.91,3.7,4.71,6.33,8.56,5.13,7.52,12.12,18.64,20.96,32.73.49.77,1.12,1.79,1.74,2.95.34.65.68,1.34.99,2.07.3.7.56,1.43.77,2.18.55,1.97.7,4.06-.02,6.02Z"/>
      <path class="cls-2" d="M208.68,224.24c-9.84-15.67-16.94-27-22.24-34.61-2.83-4.06-4.96-6.8-6.7-8.62-1.11-1.16-2.46-2.38-3.93-2.85-.71-.22-1.46-.27-2.21-.03-3.29,1-5.85,4.77-7.4,10.89-1.82,7.19-1.95,16.68-.32,25.39,1.37,7.37,4.64,17.81,12.37,25.67,3.38,3.44,6.52,5.66,8.55,6.92,2.24,1.39,4.41,2.4,6.5,3.06,3.54,1.1,6.86,1.16,9.93.16,3.39-1.11,7.63-4,9.36-8.77,2.53-6.97-1.98-14.14-3.9-17.21ZM208.28,239.89c-1.17,3.23-4.23,5.24-6.49,5.98-2.33.76-4.8.56-7.18-.19-1.64-.51-3.24-1.27-4.73-2.15-.77-.45-1.51-.93-2.21-1.42-.72-.5-1.4-1.01-2.03-1.52-1.85-1.47-3.31-2.87-4.14-3.72-12.46-12.67-13.86-34.95-10.87-46.72,1.19-4.67,2.84-6.92,4.02-7.52.35.2,1.22.82,2.88,2.76,1.63,1.91,3.7,4.71,6.33,8.56,5.13,7.52,12.12,18.64,20.96,32.73.49.77,1.12,1.79,1.74,2.95.34.65.68,1.34.99,2.07.3.7.56,1.43.77,2.18.55,1.97.7,4.06-.02,6.02Z"/>
      <path class="cls-4" d="M208.28,239.89c-1.17,3.23-4.23,5.24-6.49,5.98-2.33.76-4.8.56-7.18-.19-1.64-.51-3.24-1.27-4.73-2.15l18.42-9.66c.55,1.97.7,4.06-.02,6.02Z"/>
      <path class="cls-7" d="M208.3,233.87l-18.42,9.66c-.77-.45-1.51-.93-2.21-1.42-.72-.5-1.4-1.01-2.03-1.52-1.85-1.47-3.31-2.87-4.14-3.72-12.46-12.67-13.86-34.95-10.87-46.72,1.19-4.67,2.84-6.92,4.02-7.52.35.2,1.22.82,2.88,2.76,1.63,1.91,3.7,4.71,6.33,8.56,5.13,7.52,12.12,18.64,20.96,32.73.49.77,1.12,1.79,1.74,2.95.34.65.68,1.34.99,2.07.3.7.56,1.43.77,2.18Z"/>
    </g>
    <polygon class="cls-2" points="212.04 231.91 185.87 245.63 183.74 241.58 185.64 240.59 206.55 229.62 208.57 228.56 209.92 227.85 210.98 229.88 212.04 231.91"/>
  </g>
  <g>
    <g>
      <path class="cls-7" d="M72.32,183.57c.77.09,1.54.23,2.27.39.77.17,1.51.38,2.21.6,1.3.41,2.46.86,3.39,1.23,33.81,13.39,50.71,20.08,50.3,23.7-1.06,9.34-37.22,19.27-58.2,5.1-.58-.39-2.41-1.63-4.55-3.48-.39-.34-.79-.7-1.2-1.08-.61-.57-1.22-1.18-1.83-1.83-3.49-3.72-6.68-8.72-5.96-14.13.44-3.33,2.41-7.14,5.8-9.14,2.43-1.43,5.17-1.67,7.76-1.37ZM65.72,186.91c-2.96,1.74-4.38,5.11-4.69,7.47-.33,2.44.33,4.82,1.49,7.03.8,1.52,1.84,2.95,2.98,4.26.58.67,1.19,1.32,1.8,1.92.62.62,1.25,1.19,1.86,1.72,1.78,1.55,3.43,2.73,4.41,3.39,14.73,9.95,36.89,7.25,47.92,2.17,4.38-2.02,6.29-4.06,6.66-5.32-.26-.31-1.03-1.05-3.24-2.33-2.17-1.25-5.3-2.78-9.57-4.66-8.33-3.67-20.54-8.51-36-14.63-.85-.34-1.96-.78-3.22-1.17-.7-.22-1.44-.43-2.21-.59-.74-.16-1.51-.29-2.28-.36-2.04-.18-4.12.06-5.92,1.11Z"/>
      <path class="cls-2" d="M81.04,183.67c17.2,6.81,29.63,11.73,38.08,15.56,4.51,2.04,7.59,3.63,9.7,5.01,1.34.88,2.79,1.98,3.52,3.35.35.66.53,1.38.44,2.17-.39,3.42-3.62,6.62-9.36,9.26-6.74,3.11-16.05,4.96-24.9,4.95-7.5,0-18.36-1.31-27.5-7.48-4-2.7-6.75-5.38-8.36-7.15-1.77-1.95-3.17-3.9-4.19-5.84-1.73-3.28-2.39-6.54-1.97-9.73.47-3.54,2.54-8.23,6.91-10.81,6.39-3.75,14.27-.63,17.63.7ZM65.72,186.91c-2.96,1.74-4.38,5.11-4.69,7.47-.33,2.44.33,4.82,1.49,7.03.8,1.52,1.84,2.95,2.98,4.26.58.67,1.19,1.32,1.8,1.92.62.62,1.25,1.19,1.86,1.72,1.78,1.55,3.43,2.73,4.41,3.39,14.73,9.95,36.89,7.25,47.92,2.17,4.38-2.02,6.29-4.06,6.66-5.32-.26-.31-1.03-1.05-3.24-2.33-2.17-1.25-5.3-2.78-9.57-4.66-8.33-3.67-20.54-8.51-36-14.63-.85-.34-1.96-.78-3.22-1.17-.7-.22-1.44-.43-2.21-.59-.74-.16-1.51-.29-2.28-.36-2.04-.18-4.12.06-5.92,1.11Z"/>
      <path class="cls-4" d="M65.72,186.91c-2.96,1.74-4.38,5.11-4.69,7.47-.33,2.44.33,4.82,1.49,7.03.8,1.52,1.84,2.95,2.98,4.26l6.14-19.87c-2.04-.18-4.12.06-5.92,1.11Z"/>
      <path class="cls-7" d="M71.64,185.8l-6.14,19.87c.58.67,1.19,1.32,1.8,1.92.62.62,1.25,1.19,1.86,1.72,1.78,1.55,3.43,2.73,4.41,3.39,14.73,9.95,36.89,7.25,47.92,2.17,4.38-2.02,6.29-4.06,6.66-5.32-.26-.31-1.03-1.05-3.24-2.33-2.17-1.25-5.3-2.78-9.57-4.66-8.33-3.67-20.54-8.51-36-14.63-.85-.34-1.96-.78-3.22-1.17-.7-.22-1.44-.43-2.21-.59-.74-.16-1.51-.29-2.28-.36Z"/>
    </g>
    <polygon class="cls-2" points="72.88 181.76 64.16 210.01 68.53 211.36 69.17 209.31 76.13 186.75 76.81 184.57 77.25 183.11 75.07 182.44 72.88 181.76"/>
  </g>
  <g>
    <g>
      <path class="cls-7" d="M184.97,217.56c-4.08-11.96-10.94-28.46-22.74-46.69-6.29.25-12.57.5-18.86.75h-.26c-6.29.26-12.57.51-18.86.76-10.33,19.11-15.86,36.1-18.98,48.34-5.03,19.73-8.52,34.23-1.55,48.81,1.3,2.72,9.33,18.76,21.64,18.88,10.99.1,18.82-12.56,21.81-17.5,3.38,4.69,12.17,16.69,23.13,15.72,12.26-1.09,19-17.72,20.08-20.53,5.79-15.09,1.17-29.27-5.4-48.54Z"/>
      <path class="cls-2" d="M125.48,290.69c-.05,0-.1,0-.16,0-5.88-.06-11.49-3.17-16.67-9.27-3.71-4.36-6.14-9.08-7.01-10.91-3.41-7.13-4.66-14.64-3.94-23.64.62-7.82,2.61-16.01,5.34-26.72,4.29-16.8,10.74-33.24,19.18-48.87.38-.71,1.11-1.17,1.92-1.2l37.98-1.5c.81-.03,1.57.36,2.01,1.04,9.65,14.9,17.38,30.78,22.99,47.2h0c3.57,10.47,6.2,18.47,7.44,26.22,1.43,8.92.77,16.51-2.06,23.88-1.87,4.87-8.98,20.83-22.01,21.99-5.34.47-10.75-1.64-16.11-6.29-2.9-2.52-5.32-5.39-7.06-7.65-1.56,2.39-3.74,5.44-6.44,8.18-4.92,5-10.1,7.54-15.4,7.54ZM125.64,174.61c-7.96,14.95-14.07,30.64-18.16,46.68-5.24,20.54-8.13,33.82-1.7,47.26,1.39,2.92,8.89,17.48,19.6,17.58.04,0,.07,0,.11,0,9.79,0,17.26-12.33,19.73-16.4.4-.66,1.1-1.07,1.87-1.1.77-.03,1.5.33,1.95.95,2.69,3.73,10.68,14.82,20.03,14.82.34,0,.69-.01,1.04-.05,10.66-.95,16.99-16.05,18.15-19.07,5.34-13.91,1.42-26.92-5.43-46.98h0c-5.35-15.66-12.68-30.82-21.79-45.09l-35.37,1.4Z"/>
    </g>
    <g>
      <path class="cls-7" d="M131.98,266.89c10.07,3.87,20.07,3.64,29.99-1.19"/>
      <path class="cls-2" d="M145.8,271.86c-4.84,0-9.72-.94-14.64-2.83-1.18-.45-1.77-1.78-1.31-2.96.45-1.18,1.78-1.77,2.96-1.31,9.74,3.74,18.95,3.38,28.17-1.11,1.14-.55,2.5-.08,3.06,1.06.55,1.14.08,2.5-1.06,3.06-5.61,2.73-11.35,4.1-17.17,4.1Z"/>
    </g>
    <g>
      <g>
        <rect class="cls-7" x="125.52" y="216.71" width="42.04" height="31.94" rx="15.97" ry="15.97" transform="translate(-9.09 5.98) rotate(-2.27)"/>
        <path class="cls-2" d="M134.21,251.43c-5.69,0-10.44-4.52-10.66-10.26l-.6-15.14c-.23-5.88,4.36-10.86,10.25-11.09l25.23-1c2.84-.12,5.56.89,7.66,2.83,2.1,1.94,3.32,4.57,3.43,7.41l.6,15.14c.23,5.88-4.36,10.86-10.25,11.09h0l-25.23,1c-.14,0-.29,0-.43,0ZM158.86,218.51c-.08,0-.16,0-.24,0l-25.23,1c-3.36.13-5.99,2.98-5.86,6.34l.6,15.14c.13,3.36,2.98,5.99,6.34,5.86l25.23-1c3.36-.13,5.99-2.98,5.86-6.34l-.6-15.14c-.06-1.62-.76-3.12-1.96-4.23-1.14-1.05-2.6-1.63-4.13-1.63Z"/>
      </g>
      <g>
        <circle class="cls-4" cx="157.12" cy="226.23" r="3.64"/>
        <circle class="cls-4" cx="157.59" cy="238.28" r="3.64"/>
        <rect class="cls-3" x="139.02" y="224.17" width="11.37" height="5.1" rx="2.55" ry="2.55" transform="translate(-8.86 5.9) rotate(-2.27)"/>
      </g>
      <path class="cls-2" d="M140.69,249.29l-.49-12.46-5.2.21c-.61.03-1.2-.19-1.64-.61-.45-.41-.71-.98-.73-1.59l-.63-16.04,4.57-.18.54,13.75,5.2-.21c.61-.02,1.2.19,1.64.61.45.41.71.98.73,1.59l.58,14.74-4.57.18Z"/>
    </g>
  </g>
  <g>
    <g>
      <path class="cls-4" d="M245.92,77.78s21.17,10.09,23.08,14.32c3.54,7.84-.86,51.86-13.33,62.4-4.88,4.13-38.36,5.6-38.36,5.6l28.61-82.31Z"/>
      <path class="cls-3" d="M217.31,160.09s33.48-1.47,38.36-5.6c4.86-4.11,8.51-13.33,10.92-23.51-.39.3-12.93,9.43-34.58-13.02-.01-.01-.03-.03-.04-.04l-14.66,42.17Z"/>
      <path class="cls-4" d="M71.86,148.09s-32.78-6.94-36.92-11.81c-4.13-4.85-6.21-14.55-6.92-24.98h0c-1.12-16.29,1.08-34.39,4-38.76,2.58-3.86,25.11-10.34,25.11-10.34l7.18,41.89,7.55,44Z"/>
      <path class="cls-3" d="M71.86,148.09s-32.78-6.94-36.92-11.81c-4.13-4.85-6.21-14.55-6.92-24.98.34.36,11.21,11.43,36.24-7.18.01-.01.03-.02.04-.03l7.55,44Z"/>
      <path class="cls-2" d="M247.21,80.89c2.76,1.36,6.58,3.3,10.26,5.42,7.84,4.5,9.33,6.5,9.5,6.76.18.43,1.04,2.9.96,10.24-.06,5.62-.68,12.22-1.74,18.6-1.18,7.12-2.86,13.68-4.84,18.95-2.13,5.65-4.6,9.77-7.12,11.92-.07.06-1.22.88-5.88,1.87-3.03.64-6.93,1.23-11.58,1.74-6.14.68-12.36,1.09-16.25,1.3l26.69-76.79M244.57,74.55l-30.59,88.02,3.43-.15c5.72-.25,34.54-1.73,39.76-6.15,13.57-11.48,17.87-56.46,13.95-65.14-2.1-4.65-19.05-13.01-24.2-15.46l-2.35-1.12h0Z"/>
      <path class="cls-2" d="M55.35,65.07l13.75,80.13c-3.81-.85-9.87-2.27-15.82-3.94-4.51-1.27-8.26-2.49-11.14-3.62-4.42-1.73-5.42-2.73-5.49-2.81-2.14-2.53-3.9-7-5.08-12.92-1.1-5.53-1.68-12.27-1.67-19.49,0-6.46.48-13.08,1.33-18.63,1.12-7.26,2.38-9.56,2.62-9.95.2-.22,2.01-1.95,10.48-5.11,3.98-1.48,8.07-2.78,11.01-3.66M58.99,59.24l-2.5.72c-5.48,1.58-23.57,7.05-26.41,11.29-5.29,7.92-8.42,53,3.09,66.54,4.43,5.21,32.61,11.39,38.22,12.58l3.36.71-15.76-91.84h0Z"/>
    </g>
    <circle class="cls-7" cx="148.41" cy="107.69" r="101.65"/>
    <path class="cls-5" d="M249.72,116.04c-4.61,55.95-53.71,97.56-109.66,92.95-55.95-4.61-97.57-53.71-92.96-109.66.49-5.91,1.47-11.66,2.91-17.2,4.29,48.37,42.86,88.08,92.9,92.21,50.04,4.13,94.6-28.73,106.75-75.74.51,5.71.54,11.54.05,17.45Z"/>
    <path class="cls-2" d="M148.49,211.87c-2.86,0-5.74-.12-8.64-.36-13.99-1.15-27.35-5.02-39.7-11.5-11.93-6.26-22.41-14.66-31.17-24.99-8.75-10.33-15.33-22.05-19.55-34.84-4.37-13.25-6-27.06-4.84-41.05C49.32,41.88,99.73-.86,156.98,3.87c57.25,4.72,99.98,55.14,95.26,112.39-4.48,54.35-50.15,95.62-103.75,95.62ZM148.34,8.08c-51.25,0-94.91,39.45-99.19,91.42-2.18,26.47,6.1,52.24,23.32,72.56,17.22,20.32,41.28,32.71,67.76,34.89,2.77.23,5.53.34,8.26.34,51.25,0,94.91-39.45,99.19-91.42,4.51-54.73-36.34-102.94-91.08-107.45-2.77-.23-5.53-.34-8.26-.34Z"/>
    <polygon class="cls-8" points="146.58 126.04 146.55 126.42 146.32 126.22 146.58 126.04"/>
    <polygon class="cls-8" points="146.32 126.22 146.07 126.38 146.1 126 146.32 126.22"/>
    <path class="cls-2" d="M246.17,96.42c-12.84-41.05-48.47-69.83-90.78-73.32-42.28-3.49-82.14,19.04-101.55,57.4l-4.08-2.06c20.25-40.03,61.86-63.54,106-59.89,44.18,3.64,81.38,33.68,94.77,76.51l-4.37,1.37Z"/>
    <g class="cls-9">
      <path class="cls-2" d="M249.71,116.05c-.72,8.77-2.54,17.2-5.3,25.13,0,0,0,0-.01,0-20.37,32.5-60.11,58.64-103.3,55.08-43.19-3.56-78.1-35.85-92.87-71.26,0,0,0-.01,0-.01-.85-4.94-1.34-9.98-1.45-15.12,20.61,27.39,52.1,48.68,88.87,51.71,46.84,3.86,90.12-22.9,114.22-57.42.05.17.1.33.14.51.11,3.75.01,7.54-.3,11.37Z"/>
    </g>
    <path class="cls-2" d="M249.71,116.05c-.72,8.77-2.54,17.2-5.3,25.13,0,0,0,0-.01,0-20.37,32.5-60.11,58.64-103.3,55.08-43.19-3.56-78.1-35.85-92.87-71.26,0,0,0-.01,0-.01-1.43-8.28-1.84-16.89-1.12-25.66.32-3.83.84-7.6,1.57-11.29,16.79-36.69,58.94-60.76,106.04-56.87,47.11,3.89,84.76,34.56,95.3,73.51.11,3.75.01,7.54-.3,11.37Z"/>
    <ellipse class="cls-6" cx="149.45" cy="95.21" rx="55.24" ry="78.03" transform="translate(42.28 236.32) rotate(-85.29)"/>
    <g>
      <g>
        <circle class="cls-7" cx="259.32" cy="112.61" r="4.25"/>
        <circle class="cls-7" cx="257.03" cy="129.48" r="4.25"/>
      </g>
      <g>
        <circle class="cls-7" cx="38.2" cy="94.37" r="4.25"/>
        <circle class="cls-7" cx="37.7" cy="111.39" r="4.25"/>
      </g>
    </g>
    <g>
      <path class="cls-7" d="M83.01,124.81c-1.93,0-3.78-1.11-4.63-2.99-1.15-2.55-.02-5.56,2.54-6.71l7.95-3.59-7.54-6.13c-2.18-1.77-2.51-4.96-.74-7.14,1.77-2.18,4.96-2.51,7.14-.74l13.92,11.31c1.37,1.11,2.06,2.85,1.83,4.59-.23,1.74-1.34,3.25-2.94,3.97l-15.45,6.97c-.68.31-1.39.45-2.09.45Z"/>
      <path class="cls-7" d="M211.19,135.38c-.97,0-1.95-.28-2.81-.85l-14.09-9.41c-1.46-.98-2.32-2.64-2.25-4.4.06-1.76,1.03-3.36,2.56-4.23l15.59-8.88c2.44-1.39,5.53-.54,6.92,1.9,1.39,2.44.54,5.53-1.9,6.92l-8.45,4.81,7.26,4.85c2.33,1.56,2.96,4.71,1.4,7.04-.98,1.47-2.59,2.26-4.23,2.26Z"/>
    </g>
    <path class="cls-7" d="M145.36,154.73c-1.05,0-2.09-.33-2.98-.97-1.51-1.09-9.09-6.59-10.4-7.65-2.18-1.76-2.52-4.96-.76-7.14,1.76-2.18,4.96-2.52,7.14-.76.66.53,4.22,3.14,7.38,5.44,2.76-1.52,6.68-3.68,7.6-4.2,2.44-1.39,5.53-.53,6.92,1.9,1.39,2.44.53,5.53-1.9,6.92-1.51.86-10.18,5.62-10.55,5.82-.76.42-1.6.63-2.44.63Z"/>
    <g>
      <path class="cls-4" d="M74.37,141.36c-.31,0-.62-.06-.93-.19-1.2-.51-1.75-1.9-1.24-3.1l3.25-7.59c.51-1.2,1.9-1.75,3.1-1.24,1.2.51,1.75,1.9,1.24,3.1l-3.25,7.59c-.38.89-1.25,1.43-2.17,1.43Z"/>
      <path class="cls-4" d="M81.73,141.97c-.31,0-.62-.06-.93-.19-1.2-.51-1.75-1.9-1.24-3.1l3.25-7.59c.51-1.2,1.9-1.75,3.1-1.24,1.2.51,1.75,1.9,1.24,3.1l-3.25,7.59c-.38.89-1.25,1.43-2.17,1.43Z"/>
      <path class="cls-4" d="M89.1,142.58c-.31,0-.62-.06-.93-.19-1.2-.51-1.75-1.9-1.24-3.1l3.25-7.59c.51-1.2,1.9-1.75,3.1-1.24,1.2.51,1.75,1.9,1.24,3.1l-3.25,7.59c-.38.89-1.25,1.43-2.17,1.43Z"/>
    </g>
    <g>
      <path class="cls-4" d="M196.34,151.42c-.31,0-.62-.06-.93-.19-1.2-.51-1.75-1.9-1.24-3.1l3.25-7.59c.51-1.2,1.9-1.75,3.1-1.24,1.2.51,1.75,1.9,1.24,3.1l-3.25,7.59c-.38.89-1.25,1.43-2.17,1.43Z"/>
      <path class="cls-4" d="M203.71,152.03c-.31,0-.62-.06-.93-.19-1.2-.51-1.75-1.9-1.24-3.1l3.25-7.59c.51-1.2,1.9-1.75,3.1-1.24,1.2.51,1.75,1.9,1.24,3.1l-3.25,7.59c-.38.89-1.25,1.43-2.17,1.43Z"/>
      <path class="cls-4" d="M211.07,152.64c-.31,0-.62-.06-.93-.19-1.2-.51-1.75-1.9-1.24-3.1l3.25-7.59c.51-1.2,1.9-1.75,3.1-1.24,1.2.51,1.75,1.9,1.24,3.1l-3.25,7.59c-.38.89-1.25,1.43-2.17,1.43Z"/>
    </g>
  </g>
  <g>
    <path class="cls-7" d="M40.58,37.07c2.81-3.55,4.53-8.01,4.62-12.89.23-11.84-9.19-21.62-21.02-21.85C12.35,2.11,2.56,11.52,2.34,23.36c-.23,11.84,9.19,21.62,21.02,21.85,3.29.06,6.43-.62,9.24-1.89l9.58,3.41-1.6-9.65Z"/>
    <g class="cls-1">
      <path class="cls-7" d="M24.1,6.46c11.06.21,20,8.76,20.94,19.54.09-.75.15-1.51.17-2.28.23-11.84-9.19-21.62-21.02-21.85C12.35,1.64,2.57,11.05,2.35,22.89c-.01.78.01,1.54.08,2.3C3.78,14.45,13.04,6.25,24.1,6.46Z"/>
    </g>
    <path class="cls-2" d="M20.87,47.37C8.93,45.91-.23,35.6,0,23.32c.12-6.35,2.71-12.27,7.28-16.67C11.86,2.24,17.88-.12,24.23,0c13.09.25,23.56,11.12,23.31,24.22-.09,4.89-1.64,9.52-4.49,13.45l1.43,8.66c.13.81-.17,1.64-.8,2.17-.63.53-1.5.68-2.28.41l-8.72-3.1c-2.97,1.21-6.12,1.79-9.36,1.72-.82-.02-1.64-.07-2.44-.17ZM26.1,4.81c-.65-.08-1.3-.13-1.96-.14-5.1-.1-9.94,1.8-13.62,5.34-3.68,3.54-5.76,8.3-5.85,13.4-.2,10.53,8.2,19.27,18.74,19.47,2.87.05,5.64-.51,8.23-1.69.55-.25,1.18-.28,1.74-.07l5.85,2.08-.95-5.75c-.11-.65.06-1.31.47-1.83,2.62-3.3,4.04-7.27,4.12-11.49.19-9.87-7.18-18.16-16.77-19.33Z"/>
    <g>
      <path class="cls-4" d="M31.31,18.63h0c-1.62-2.07-4.64-2.1-6.71-.48l-.32.25-.25-.32c-1.62-2.07-4.56-2.76-6.63-1.14h0c-2.07,1.62-2.43,4.6-.81,6.67l.25.32,5.08,6.5c.43.54,1.21.64,1.76.21l6.5-5.08.32-.25c2.07-1.62,2.43-4.6.81-6.67Z"/>
      <path class="cls-4" d="M22.9,31.97c-.69,0-1.38-.31-1.83-.89l-5.33-6.82c-1.98-2.53-1.53-6.2,1-8.17,1.23-.96,2.77-1.32,4.35-1.02,1.28.25,2.46.9,3.37,1.87,2.58-1.64,5.92-1.24,7.7,1.03,1.98,2.53,1.53,6.2-1,8.17l-6.82,5.34c-.42.33-.93.49-1.43.49ZM20.01,17.11c-.72,0-1.39.23-1.95.67-1.6,1.25-1.88,3.57-.63,5.16l5.34,6.82c.06.08.17.09.25.03l6.82-5.33c1.6-1.25,1.88-3.57.63-5.16-1.31-1.68-3.72-1.46-5.2-.3l-1.17.91-.91-1.17c-.63-.81-1.54-1.38-2.5-1.56-.22-.04-.45-.06-.67-.06Z"/>
    </g>
  </g>
</svg>