<?xml version="1.0" encoding="UTF-8"?>
<svg id="Layer_1" data-name="Layer 1" xmlns="http://www.w3.org/2000/svg" viewBox="0 0 247.17 285.25">
  <defs>
    <style>
      .cls-1 {
        opacity: .72;
      }

      .cls-2 {
        fill: #0a0613;
      }

      .cls-2, .cls-3, .cls-4, .cls-5, .cls-6, .cls-7, .cls-8, .cls-9 {
        stroke-width: 0px;
      }

      .cls-3 {
        fill: #7105e2;
      }

      .cls-4 {
        fill: #9013fe;
      }

      .cls-5, .cls-7 {
        fill: #e8d2ff;
      }

      .cls-10 {
        opacity: .35;
      }

      .cls-6 {
        fill: none;
      }

      .cls-7 {
        opacity: .1;
      }

      .cls-8 {
        fill: #fff;
      }

      .cls-9 {
        fill: #d8d8d8;
      }
    </style>
  </defs>
  <path class="cls-2" d="M84.72,239.69c-9.41,0-18.52-3.15-26.09-9.08-8.52-6.68-14.46-16.36-16.71-27.24-3.88-18.77,4.48-35.12,7.13-39.68,1.99-3.41,6.36-4.57,9.77-2.58,3.41,1.99,4.57,6.36,2.58,9.77-1.43,2.46-8.42,15.44-5.49,29.6,3.04,14.71,15.14,24.92,28.85,24.93,1.07,0,2.14-.06,3.22-.19,3.92-.46,7.47,2.35,7.93,6.27.46,3.92-2.35,7.47-6.27,7.93-1.64.19-3.28.29-4.92.29Z"/>
  <g>
    <path class="cls-6" d="M180.5,223.13c-6.97,6.97-13.93,13.93-20.9,20.9"/>
    <g>
      <g>
        <g>
          <path class="cls-8" d="M110.81,186.75c-3.01-2.05-16.82,9.77-44.45,33.41-.69.59-1.52,1.31-2.38,2.14-.52.51-1.06,1.06-1.59,1.65-.5.56-.98,1.16-1.44,1.8-1.59,2.22-2.78,4.87-2.65,7.84.18,3.93,2.63,7.45,5.37,9.4,4.58,3.26,10.71,2.64,15.72,1.21.85-.24,1.67-.51,2.45-.79.72-.26,1.41-.53,2.04-.79,2.15-.89,3.71-1.73,4.26-2.02,22.33-11.94,30.44-48.55,22.67-53.85ZM87.06,238.58c-.98.52-2.63,1.35-4.65,2.16-.74.3-1.54.59-2.37.86-.81.27-1.65.51-2.51.73-4.28,1.06-9.03,1.28-12.53-1.21-1.94-1.38-4.25-4.21-4.41-7.64-.1-2.22.78-4.29,2-6.09.44-.64.92-1.25,1.42-1.82.52-.6,1.06-1.15,1.58-1.65.83-.8,1.63-1.49,2.25-2.02,12.64-10.82,22.62-19.36,29.75-25,3.66-2.89,6.47-4.95,8.59-6.28,2.16-1.36,3.17-1.69,3.57-1.78.94.92,1.86,3.57,1.6,8.38-.65,12.13-8.62,32.99-24.3,41.37Z"/>
          <path class="cls-2" d="M112.1,184.86c-2.01-1.37-4.65-.23-6.73.92-2.2,1.22-5.05,3.2-8.96,6.23-7.33,5.69-17.48,14.38-31.54,26.41-2.75,2.35-9.19,7.86-8.85,15.27.23,5.07,3.42,9.09,6.33,11.16,2.62,1.87,5.81,2.8,9.52,2.8,2.19,0,4.57-.33,7.12-.98,2.32-.59,5.97-1.78,10.23-4.06,9.72-5.2,15.95-14.19,19.45-20.82,4.14-7.83,6.85-16.92,7.25-24.33.03-.65.05-1.28.05-1.88,0-5.29-1.33-8.98-3.88-10.72ZM111.36,197.22c-.65,12.13-8.62,32.99-24.3,41.37-.98.52-2.63,1.35-4.65,2.16-.74.3-1.54.59-2.37.86-.81.27-1.65.51-2.51.73-4.28,1.06-9.03,1.28-12.53-1.21-1.94-1.38-4.25-4.21-4.41-7.64-.1-2.22.78-4.29,2-6.09.44-.64.92-1.25,1.42-1.82.52-.6,1.06-1.15,1.58-1.65.83-.8,1.63-1.49,2.25-2.02,12.64-10.82,22.62-19.36,29.75-25,3.66-2.89,6.47-4.95,8.59-6.28,2.16-1.36,3.17-1.69,3.57-1.78.94.92,1.86,3.57,1.6,8.38Z"/>
          <path class="cls-4" d="M77.54,242.33c-4.28,1.06-9.03,1.28-12.53-1.21-1.94-1.38-4.25-4.21-4.41-7.64-.1-2.22.78-4.29,2-6.09l14.94,14.94Z"/>
          <path class="cls-8" d="M111.36,197.22c-.65,12.13-8.62,32.99-24.3,41.37-.98.52-2.63,1.35-4.65,2.16-.74.3-1.54.59-2.37.86-.81.27-1.65.51-2.51.73l-14.94-14.94c.44-.64.92-1.25,1.42-1.82.52-.6,1.06-1.15,1.58-1.65.83-.8,1.63-1.49,2.25-2.02,12.64-10.82,22.62-19.36,29.75-25,3.66-2.89,6.47-4.95,8.59-6.28,2.16-1.36,3.17-1.69,3.57-1.78.94.92,1.86,3.57,1.6,8.38Z"/>
        </g>
        <g>
          <path class="cls-6" d="M61.57,223.13c6.97,6.97,13.93,13.93,20.9,20.9"/>
          <polygon class="cls-2" points="84.09 242.41 83.89 242.61 80.85 245.65 79.4 244.19 77.54 242.33 62.6 227.39 60.96 225.75 59.95 224.74 61.57 223.13 63.19 221.51 63.98 222.3 65.6 223.92 82.41 240.74 84.09 242.41"/>
        </g>
      </g>
      <g>
        <g>
          <path class="cls-8" d="M186.44,226.08c-.44-.64-.92-1.25-1.41-1.83-.51-.6-1.04-1.16-1.56-1.67-.96-.96-1.9-1.77-2.67-2.42-27.63-23.64-41.44-35.46-44.45-33.41-7.77,5.3.34,41.91,22.67,53.85.62.33,2.56,1.37,5.2,2.39.48.19.99.37,1.52.56.78.27,1.61.53,2.47.77,4.92,1.35,10.83,1.83,15.28-1.33,2.74-1.95,5.19-5.47,5.37-9.4.13-2.82-.94-5.35-2.41-7.5ZM186.57,233.48c-.16,3.43-2.47,6.26-4.41,7.64-2,1.43-4.41,1.96-6.91,1.96-1.71,0-3.47-.25-5.16-.65-.87-.2-1.72-.44-2.54-.7-.83-.26-1.64-.55-2.39-.84-2.21-.85-4.02-1.76-5.06-2.32-15.67-8.38-23.64-29.23-24.29-41.37-.26-4.81.65-7.45,1.6-8.38.39.08,1.41.42,3.57,1.78,2.12,1.34,4.93,3.39,8.59,6.28,7.14,5.65,17.12,14.19,29.75,25,.69.59,1.6,1.37,2.54,2.3.52.51,1.05,1.08,1.56,1.68.49.58.96,1.2,1.38,1.85,1.11,1.72,1.87,3.67,1.78,5.75Z"/>
          <path class="cls-2" d="M182.29,218.43c-14.06-12.03-24.21-20.72-31.54-26.41-3.91-3.04-6.76-5.02-8.96-6.23-1.4-.77-3.05-1.55-4.6-1.55-.75,0-1.47.18-2.12.63-2.84,1.94-4.16,6.3-3.82,12.6.4,7.41,3.11,16.51,7.25,24.33,3.51,6.63,9.73,15.62,19.45,20.82,4.26,2.28,7.91,3.46,10.22,4.06,2.55.66,4.93.98,7.12.98,3.71,0,6.9-.94,9.52-2.8,2.91-2.07,6.1-6.09,6.33-11.16.34-7.4-6.1-12.91-8.85-15.27ZM186.57,233.48c-.16,3.43-2.47,6.26-4.41,7.64-2,1.43-4.41,1.96-6.91,1.96-1.71,0-3.47-.25-5.16-.65-.87-.2-1.72-.44-2.54-.7-.83-.26-1.64-.55-2.39-.84-2.21-.85-4.02-1.76-5.06-2.32-15.67-8.38-23.64-29.23-24.29-41.37-.26-4.81.65-7.45,1.6-8.38.39.08,1.41.42,3.57,1.78,2.12,1.34,4.93,3.39,8.59,6.28,7.14,5.65,17.12,14.19,29.75,25,.69.59,1.6,1.37,2.54,2.3.52.51,1.05,1.08,1.56,1.68.49.58.96,1.2,1.38,1.85,1.11,1.72,1.87,3.67,1.78,5.75Z"/>
          <path class="cls-4" d="M186.57,233.48c-.16,3.43-2.47,6.26-4.41,7.64-2,1.43-4.41,1.96-6.91,1.96-1.71,0-3.47-.25-5.16-.65l14.7-14.7c1.11,1.72,1.87,3.67,1.78,5.75Z"/>
          <path class="cls-8" d="M184.79,227.73l-14.7,14.7c-.87-.2-1.72-.44-2.54-.7-.83-.26-1.64-.55-2.39-.84-2.21-.85-4.02-1.76-5.06-2.32-15.67-8.38-23.64-29.23-24.29-41.37-.26-4.81.65-7.45,1.6-8.38.39.08,1.41.42,3.57,1.78,2.12,1.34,4.93,3.39,8.59,6.28,7.14,5.65,17.12,14.19,29.75,25,.69.59,1.6,1.37,2.54,2.3.52.51,1.05,1.08,1.56,1.68.49.58.96,1.2,1.38,1.85Z"/>
        </g>
        <polygon class="cls-2" points="187.78 224.74 166.88 245.65 163.65 242.41 165.16 240.9 181.86 224.2 183.47 222.59 184.55 221.51 186.16 223.13 187.78 224.74"/>
      </g>
    </g>
    <g>
      <path class="cls-8" d="M163.47,214.52c-3.61-12.11-9.8-28.87-20.88-47.55h-38.01c-11.07,18.68-17.27,35.44-20.88,47.55-5.81,19.51-9.87,33.87-3.48,48.71,1.19,2.77,8.58,19.12,20.88,19.72,10.98.54,19.3-11.8,22.49-16.62,3.19,4.82,11.51,17.16,22.49,16.62,12.3-.6,19.69-16.95,20.88-19.72,6.39-14.84,2.33-29.2-3.48-48.71Z"/>
      <path class="cls-2" d="M101.8,285.25c-.27,0-.54,0-.81-.02-5.88-.29-11.36-3.63-16.29-9.92-3.53-4.51-5.77-9.32-6.57-11.18-3.12-7.25-4.08-14.81-3-23.78.93-7.79,3.24-15.89,6.39-26.49,4.95-16.62,12.05-32.79,21.1-48.07.41-.69,1.16-1.12,1.97-1.12h38.01c.81,0,1.56.43,1.97,1.12,9.05,15.27,16.15,31.45,21.1,48.07h0c3.16,10.6,5.46,18.7,6.39,26.49,1.07,8.97.12,16.53-3,23.78-2.06,4.79-9.8,20.46-22.87,21.1-5.35.26-10.68-2.07-15.84-6.92-2.8-2.63-5.1-5.59-6.75-7.92-1.65,2.33-3.95,5.29-6.75,7.92-4.9,4.61-9.95,6.94-15.03,6.94ZM123.58,264.04c.77,0,1.48.38,1.91,1.02,2.63,3.98,10.64,16.08,20.47,15.6,10.69-.52,17.61-15.37,18.89-18.34,5.89-13.69,2.48-26.84-3.57-47.16h0c-4.72-15.86-11.45-31.3-19.99-45.92h-35.4c-8.55,14.62-15.27,30.06-19.99,45.92-6.05,20.32-9.46,33.47-3.57,47.16,1.28,2.97,8.19,17.81,18.89,18.34,9.83.48,17.84-11.62,20.47-15.6.42-.64,1.14-1.02,1.91-1.02Z"/>
    </g>
    <g>
      <path class="cls-8" d="M108.58,261.71c9.91,4.27,19.91,4.43,30.01,0"/>
      <path class="cls-2" d="M123.65,267.25c-5.32,0-10.66-1.15-15.98-3.44-1.16-.5-1.7-1.84-1.2-3.01.5-1.16,1.85-1.7,3.01-1.2,9.58,4.12,18.8,4.13,28.19,0,1.16-.51,2.51.02,3.01,1.18.51,1.16-.02,2.51-1.18,3.01-5.24,2.3-10.53,3.45-15.85,3.45Z"/>
    </g>
    <g>
      <g>
        <rect class="cls-8" x="103.45" y="212.14" width="42.04" height="31.94" rx="15.97" ry="15.97"/>
        <path class="cls-2" d="M137.1,246.36h-25.25c-5.89,0-10.68-4.79-10.68-10.68v-15.16c0-5.89,4.79-10.68,10.68-10.68h25.25c5.89,0,10.68,4.79,10.68,10.68v15.16c0,5.89-4.79,10.68-10.68,10.68ZM111.84,214.42c-3.37,0-6.1,2.74-6.1,6.1v15.16c0,3.37,2.74,6.1,6.1,6.1h25.25c3.37,0,6.1-2.74,6.1-6.1v-15.16c0-3.37-2.74-6.1-6.1-6.1h-25.25Z"/>
      </g>
      <g>
        <circle class="cls-4" cx="135.3" cy="222.07" r="3.64"/>
        <circle class="cls-4" cx="135.3" cy="234.14" r="3.64"/>
        <rect class="cls-3" x="117.19" y="219.53" width="11.37" height="5.1" rx="2.55" ry="2.55"/>
      </g>
      <path class="cls-2" d="M122.55,244.47h-4.57v-12.47h-5.2c-1.26,0-2.29-1.02-2.29-2.29v-16.05h4.57v13.76h5.2c1.26,0,2.29,1.02,2.29,2.29v14.75Z"/>
    </g>
  </g>
  <g>
    <g>
      <path class="cls-4" d="M218.3,66.35s21.92,8.31,24.18,12.37c4.18,7.52,3.4,51.75-8.15,63.28-4.52,4.51-37.77,8.73-37.77,8.73l21.74-84.39Z"/>
      <path class="cls-3" d="M196.55,150.74s33.24-4.22,37.77-8.74c4.51-4.5,7.38-13.99,8.95-24.33-.37.33-12.11,10.47-35.53-10.13-.01-.01-.03-.02-.04-.04l-11.14,43.23Z"/>
      <path class="cls-4" d="M50.61,150.74s-33.24-4.22-37.77-8.74c-4.51-4.5-7.38-13.99-8.95-24.33h0c-2.45-16.14-1.75-34.36.8-38.95,2.25-4.06,24.18-12.37,24.18-12.37l10.6,41.16,11.14,43.23Z"/>
      <path class="cls-3" d="M50.61,150.74s-33.24-4.22-37.77-8.74c-4.51-4.5-7.38-13.99-8.95-24.33.37.33,12.11,10.47,35.53-10.13.01-.01.03-.02.04-.04l11.14,43.23Z"/>
      <path class="cls-2" d="M219.84,69.35c2.86,1.12,6.83,2.75,10.67,4.55,8.18,3.84,9.84,5.72,10.02,5.95.21.41,1.28,2.8,1.8,10.13.4,5.61.33,12.24-.2,18.68-.59,7.2-1.72,13.87-3.27,19.29-1.66,5.81-3.78,10.12-6.12,12.46-.07.06-1.14.98-5.7,2.35-2.97.89-6.8,1.79-11.4,2.69-6.06,1.18-12.22,2.1-16.09,2.63l20.29-78.73M216.69,63.25l-23.25,90.24,3.41-.43c5.68-.72,34.28-4.56,39.12-9.4,12.58-12.55,13.17-57.74,8.55-66.06-2.48-4.46-20.06-11.4-25.39-13.42l-2.43-.92h0Z"/>
      <path class="cls-2" d="M27.32,69.35l20.29,78.73c-3.86-.53-10.03-1.45-16.09-2.63-4.6-.89-8.43-1.8-11.4-2.69-4.56-1.37-5.63-2.28-5.7-2.35-2.34-2.34-4.46-6.65-6.12-12.46-1.55-5.42-2.68-12.09-3.27-19.29-.53-6.44-.6-13.07-.2-18.68.52-7.33,1.59-9.72,1.8-10.13.19-.24,1.84-2.11,10.02-5.95,3.84-1.8,7.81-3.43,10.67-4.55M30.48,63.25l-2.43.92c-5.33,2.02-22.91,8.96-25.39,13.42-4.62,8.33-4.04,53.51,8.55,66.06,4.84,4.83,33.44,8.68,39.12,9.4l3.41.43L30.48,63.25h0Z"/>
    </g>
    <circle class="cls-8" cx="123.57" cy="104.18" r="101.65"/>
    <path class="cls-5" d="M225.23,104.17c0,56.14-45.51,101.65-101.65,101.65S21.92,160.31,21.92,104.17c0-5.93.51-11.74,1.49-17.38,8.25,47.85,49.96,84.26,100.17,84.26s91.92-36.4,100.16-84.26c.98,5.65,1.49,11.46,1.49,17.38Z"/>
    <path class="cls-2" d="M123.58,208.35c-57.44,0-104.18-46.73-104.18-104.18S66.14,0,123.58,0s104.18,46.73,104.18,104.18-46.73,104.18-104.18,104.18ZM123.58,4.57c-54.92,0-99.6,44.68-99.6,99.6s44.68,99.6,99.6,99.6,99.6-44.68,99.6-99.6S178.5,4.57,123.58,4.57Z"/>
    <polygon class="cls-9" points="123.26 122.62 123.26 123 123.02 122.81 123.26 122.62"/>
    <polygon class="cls-9" points="123.02 122.81 122.78 123 122.78 122.62 123.02 122.81"/>
    <path class="cls-2" d="M220.08,84.91c-16.17-39.86-54.05-65.61-96.5-65.61S43.27,45.03,27.09,84.85l-4.24-1.72C39.74,41.57,79.27,14.72,123.57,14.72s83.87,26.87,100.74,68.47l-4.24,1.72Z"/>
    <g class="cls-10">
      <path class="cls-2" d="M225.22,104.18c0,8.8-1.11,17.35-3.21,25.48,0,0,0,0,0,0-17.63,34.07-55.08,63.38-98.42,63.38s-80.78-29.31-98.42-63.38c0,0,0,0,0,0-1.25-4.85-2.16-9.84-2.69-14.95,22.79,25.6,55.93,44.23,92.82,44.23,47,0,87.94-30.23,109.12-66.61.07.17.13.33.19.49.42,3.73.63,7.52.63,11.35Z"/>
    </g>
    <path class="cls-2" d="M225.22,104.18c0,8.8-1.11,17.35-3.21,25.48,0,0,0,0,0,0-17.63,34.07-55.08,63.38-98.42,63.38s-80.78-29.31-98.42-63.38c0,0,0,0,0,0-2.11-8.14-3.22-16.69-3.22-25.48,0-3.85.21-7.65.64-11.38C36.28,54.86,76.31,27.4,123.57,27.4s87.31,27.47,101.02,65.42c.42,3.73.63,7.52.63,11.35Z"/>
    <ellipse class="cls-7" cx="123.58" cy="91.65" rx="78.03" ry="55.24"/>
    <g>
      <g>
        <circle class="cls-8" cx="234.52" cy="99.96" r="4.25"/>
        <circle class="cls-8" cx="233.62" cy="116.97" r="4.25"/>
      </g>
      <g>
        <circle class="cls-8" cx="12.65" cy="99.96" r="4.25"/>
        <circle class="cls-8" cx="13.54" cy="116.97" r="4.25"/>
      </g>
    </g>
    <g class="cls-1">
      <ellipse class="cls-2" cx="66.17" cy="111.79" rx="13.76" ry="21.5"/>
      <ellipse class="cls-2" cx="181" cy="111.77" rx="13.76" ry="21.5"/>
    </g>
    <g>
      <path class="cls-8" d="M123.6,154.19c-6.24,0-10.93-2.53-13.24-4.1-2.32-1.58-2.92-4.73-1.35-7.05,1.58-2.32,4.73-2.92,7.05-1.35,1.41.96,4.35,2.53,8.23,2.33,3.05-.16,5.39-1.35,6.81-2.32,2.31-1.58,5.47-.99,7.05,1.33,1.58,2.31.99,5.47-1.33,7.05-2.49,1.7-6.59,3.79-12,4.07-.41.02-.82.03-1.22.03Z"/>
      <g>
        <ellipse class="cls-8" cx="66.17" cy="111.79" rx="13.76" ry="21.5"/>
        <ellipse class="cls-8" cx="181" cy="111.77" rx="13.76" ry="21.5"/>
      </g>
    </g>
  </g>
</svg>