<?xml version="1.0" encoding="UTF-8"?>
<svg id="Isolation_Mode" data-name="Isolation Mode" xmlns="http://www.w3.org/2000/svg" viewBox="0 0 1214 1214">
  <defs>
    <style>
      .cls-1 {
        fill: #000;
      }

      .cls-1, .cls-2 {
        stroke-width: 0px;
      }

      .cls-2 {
        fill: #fff;
      }
    </style>
  </defs>
  <circle class="cls-1" cx="607" cy="607" r="607"/>
  <g>
    <path class="cls-2" d="M183.74,471.31c38.14,0,43.58-21.25,44.13-40.32,0-15.26-2.18-30.51-4.36-45.22-2.18-15.8-4.36-31.05-4.36-45.77,0-50.12,33.23-71.37,79.54-71.37h10.89v29.96h-9.26c-32.14.55-43.58,17.43-43.58,46.85,0,12.53,2.18,25.61,3.81,38.68,2.18,13.62,4.36,26.7,4.36,41.4.55,34.87-15.26,52.3-39.77,58.84v1.09c24.52,6.54,39.77,24.52,39.77,59.39,0,14.71-2.18,28.33-4.36,41.95-1.64,13.08-3.81,26.15-3.81,39.23,0,30.51,13.08,46.85,43.58,47.4h9.26v29.96h-11.44c-44.67,0-78.99-19.61-78.99-74.64,0-14.71,2.18-29.96,4.9-44.67,1.64-15.26,3.81-29.96,3.81-44.13,0-17.43-5.45-40.86-44.13-40.86v-27.78Z"/>
    <path class="cls-2" d="M543.17,272.39h41.8c6.06,0,10.96,4.91,10.96,10.96v343.57c0,6.06-4.91,10.96-10.96,10.96h-39.85c-5.9,0-10.74-4.66-10.96-10.56-.34-9.33-11.25-13.76-18.34-7.68-17.01,14.63-39.45,22.92-67.49,22.92-68.41,0-120.89-52.01-120.89-129.8s52.48-132.14,120.89-132.14c.14,0,.27.02.4.02v-.02s72.52,0,72.52,0c6.05,0,10.96-4.9,10.96-10.96v-86.32c0-6.05,4.91-10.96,10.96-10.96ZM532.21,445.95c0-6.06-4.91-10.96-10.96-10.96h-59.56v.06c-41.05.58-68.18,31.31-68.18,76.79s27.65,75.91,69.35,75.91,69.35-30.46,69.35-76.38v-65.42Z"/>
    <path class="cls-2" d="M770.62,482.83l-293.65,462.54h-43.04l292.01-462.54h44.67Z"/>
    <path class="cls-2" d="M850.28,658.61c-3.63,0-6.56,2.95-6.56,6.57v187.42c0,3.63-2.94,6.56-6.57,6.56h-50.59c-3.63,0-6.57-2.94-6.57-6.56v-187.41c0-3.63-2.94-6.57-6.57-6.57h-39.8c-3.63,0-6.57-2.94-6.57-6.56v-38.88c0-3.63,2.94-6.56,6.57-6.56h39.8c3.63,0,6.57-2.94,6.57-6.57v-25.56c0-3.63,2.94-6.56,6.57-6.56h50.59c3.63,0,6.57,2.94,6.57,6.56v25.56c0,3.63,2.94,6.57,6.56,6.57h40.75c3.63,0,6.57,2.94,6.57,6.56v38.88c0,3.63-2.94,6.56-6.57,6.56h-40.75Z"/>
    <path class="cls-2" d="M1030.26,722.5c-38.14,0-43.58,23.43-44.13,40.86,0,14.17,2.18,28.87,4.36,44.13,2.18,14.71,4.36,29.96,4.36,44.67,0,55.02-34.32,74.64-78.99,74.64h-11.44v-29.96h9.26c30.51-.55,43.58-16.89,43.58-47.4,0-13.08-2.18-26.15-3.81-39.23-2.18-13.62-4.36-27.24-4.36-41.95-.55-34.87,15.26-52.85,39.77-59.39v-1.09c-24.52-6.54-39.77-23.97-39.77-58.84,0-14.71,2.18-27.79,4.36-41.4,1.64-13.08,3.81-26.15,3.81-38.68,0-29.42-11.44-46.31-43.58-46.85h-9.26v-29.96h10.89c46.31,0,79.54,21.25,79.54,71.37,0,14.71-2.18,29.96-4.36,45.77-2.18,14.71-4.36,29.96-4.36,45.22,0,19.07,5.45,40.32,44.13,40.32v27.78Z"/>
  </g>
</svg>